<svg width="40" height="49" viewBox="0 0 40 49" fill="none" xmlns="http://www.w3.org/2000/svg">
<path d="M33.5018 26.3966C33.5496 22.6735 35.5413 19.1506 38.7009 17.2005C36.7076 14.3426 33.369 12.5307 29.8955 12.4216C26.1907 12.0312 22.5991 14.6471 20.7112 14.6471C18.7868 14.6471 15.8801 12.4603 12.7501 12.525C8.67022 12.6573 4.86677 14.986 2.88183 18.5668C-1.385 25.983 1.79767 36.8823 5.88494 42.877C7.92988 45.8124 10.3198 49.0913 13.447 48.9751C16.5072 48.8476 17.6501 47.0161 21.344 47.0161C25.0036 47.0161 26.0759 48.9751 29.2665 48.9011C32.5502 48.8476 34.6191 45.9526 36.5923 42.9894C38.0616 40.8978 39.1922 38.5862 39.9423 36.14C36.0833 34.5015 33.5063 30.6029 33.5018 26.3966Z" fill="white"/>
<path d="M27.4751 8.47919C29.2656 6.32148 30.1476 3.54811 29.934 0.748047C27.1987 1.03646 24.672 2.34888 22.8574 4.4238C21.083 6.45111 20.1595 9.17568 20.3341 11.8687C23.0704 11.897 25.7605 10.6202 27.4751 8.47919Z" fill="white"/>
</svg>
