<svg width="42" height="46" viewBox="0 0 42 46" fill="none" xmlns="http://www.w3.org/2000/svg">
<g filter="url(#filter0_ii_56_23)">
<path d="M1.59769 1.31421C1.08681 1.85704 0.78485 2.69948 0.78485 3.79043V42.7685C0.78485 43.8612 1.08681 44.7019 1.59769 45.2448L1.7276 45.3716L23.4776 23.5368V23.2795V23.0222L1.7276 1.18555L1.59769 1.31421Z" fill="url(#paint0_linear_56_23)"/>
<path d="M30.726 30.8173L23.4771 23.5367V23.2794V23.022L30.7277 15.7432L30.891 15.8366L39.4811 20.7362C41.9336 22.1355 41.9336 24.4249 39.4811 25.8261L30.891 30.7257L30.726 30.8173Z" fill="url(#paint1_linear_56_23)"/>
<g filter="url(#filter1_i_56_23)">
<path d="M30.8914 30.7236L23.4758 23.2791L1.59769 45.2443C2.40526 46.1044 3.74126 46.2101 5.24579 45.3536L30.8914 30.7236Z" fill="url(#paint2_linear_56_23)"/>
</g>
<path d="M30.8914 15.8351L5.24579 1.20681C3.74126 0.348506 2.40526 0.456016 1.59769 1.31609L23.4776 23.2814L30.8914 15.8351Z" fill="url(#paint3_linear_56_23)"/>
</g>
<defs>
<filter id="filter0_ii_56_23" x="0.784851" y="0.614502" width="40.5356" height="45.3308" filterUnits="userSpaceOnUse" color-interpolation-filters="sRGB">
<feFlood flood-opacity="0" result="BackgroundImageFix"/>
<feBlend mode="normal" in="SourceGraphic" in2="BackgroundImageFix" result="shape"/>
<feColorMatrix in="SourceAlpha" type="matrix" values="0 0 0 0 0 0 0 0 0 0 0 0 0 0 0 0 0 0 127 0" result="hardAlpha"/>
<feOffset dy="-0.264366"/>
<feComposite in2="hardAlpha" operator="arithmetic" k2="-1" k3="1"/>
<feColorMatrix type="matrix" values="0 0 0 0 0 0 0 0 0 0 0 0 0 0 0 0 0 0 0.12 0"/>
<feBlend mode="normal" in2="shape" result="effect1_innerShadow_56_23"/>
<feColorMatrix in="SourceAlpha" type="matrix" values="0 0 0 0 0 0 0 0 0 0 0 0 0 0 0 0 0 0 127 0" result="hardAlpha"/>
<feOffset dy="0.264366"/>
<feComposite in2="hardAlpha" operator="arithmetic" k2="-1" k3="1"/>
<feColorMatrix type="matrix" values="0 0 0 0 1 0 0 0 0 1 0 0 0 0 1 0 0 0 0.25 0"/>
<feBlend mode="normal" in2="effect1_innerShadow_56_23" result="effect2_innerShadow_56_23"/>
</filter>
<filter id="filter1_i_56_23" x="1.59769" y="23.2791" width="29.2937" height="22.6663" filterUnits="userSpaceOnUse" color-interpolation-filters="sRGB">
<feFlood flood-opacity="0" result="BackgroundImageFix"/>
<feBlend mode="normal" in="SourceGraphic" in2="BackgroundImageFix" result="shape"/>
<feColorMatrix in="SourceAlpha" type="matrix" values="0 0 0 0 0 0 0 0 0 0 0 0 0 0 0 0 0 0 127 0" result="hardAlpha"/>
<feOffset dy="-0.264366"/>
<feComposite in2="hardAlpha" operator="arithmetic" k2="-1" k3="1"/>
<feColorMatrix type="matrix" values="0 0 0 0 0 0 0 0 0 0 0 0 0 0 0 0 0 0 0.08 0"/>
<feBlend mode="normal" in2="shape" result="effect1_innerShadow_56_23"/>
</filter>
<linearGradient id="paint0_linear_56_23" x1="21.5496" y1="3.37802" x2="-8.02745" y2="32.84" gradientUnits="userSpaceOnUse">
<stop stop-color="#00A0FF"/>
<stop offset="0.0066" stop-color="#00A1FF"/>
<stop offset="0.2601" stop-color="#00BEFF"/>
<stop offset="0.5122" stop-color="#00D2FF"/>
<stop offset="0.7604" stop-color="#00DFFF"/>
<stop offset="1" stop-color="#00E3FF"/>
</linearGradient>
<linearGradient id="paint1_linear_56_23" x1="42.6736" y1="23.2794" x2="0.195611" y2="23.2794" gradientUnits="userSpaceOnUse">
<stop stop-color="#FFE000"/>
<stop offset="0.4087" stop-color="#FFBD00"/>
<stop offset="0.7754" stop-color="#FFA500"/>
<stop offset="1" stop-color="#FF9C00"/>
</linearGradient>
<linearGradient id="paint2_linear_56_23" x1="26.8643" y1="27.3219" x2="-13.2459" y2="67.2761" gradientUnits="userSpaceOnUse">
<stop stop-color="#FF3A44"/>
<stop offset="1" stop-color="#C31162"/>
</linearGradient>
<linearGradient id="paint3_linear_56_23" x1="-3.9124" y1="-11.6593" x2="13.9979" y2="6.18132" gradientUnits="userSpaceOnUse">
<stop stop-color="#32A071"/>
<stop offset="0.0685" stop-color="#2DA771"/>
<stop offset="0.4762" stop-color="#15CF74"/>
<stop offset="0.8009" stop-color="#06E775"/>
<stop offset="1" stop-color="#00F076"/>
</linearGradient>
</defs>
</svg>
