<svg width="17" height="11" viewBox="0 0 17 11" fill="none" xmlns="http://www.w3.org/2000/svg">
<path fill-rule="evenodd" clip-rule="evenodd" d="M10.9541 1.24096C11.1393 1.05117 11.3923 0.942701 11.6574 0.939404C11.9226 0.936107 12.1782 1.03825 12.368 1.22338L16.4175 5.17333C16.6072 5.35852 16.7157 5.6115 16.719 5.87664C16.7223 6.14178 16.6202 6.39738 16.435 6.58722L12.4851 10.6366C12.2988 10.8211 12.0474 10.9251 11.7852 10.926C11.523 10.927 11.2709 10.825 11.0832 10.6419C10.8955 10.4588 10.7872 10.2093 10.7817 9.94718C10.7762 9.68503 10.8738 9.43119 11.0536 9.24034L13.3179 6.91901L1.73282 7.06306C1.46762 7.06636 1.21198 6.96417 1.02212 6.77898C0.832268 6.59379 0.723757 6.34077 0.720459 6.07557C0.717162 5.81038 0.819348 5.55473 1.00454 5.36488C1.18973 5.17502 1.44275 5.06651 1.70795 5.06322L13.2931 4.91916L10.9717 2.65485C10.7819 2.46967 10.6735 2.21669 10.6702 1.95154C10.6669 1.6864 10.769 1.4308 10.9541 1.24096Z" fill="white"/>
</svg>
