<svg width="74" height="92" viewBox="0 0 74 92" fill="none" xmlns="http://www.w3.org/2000/svg">
<g clip-path="url(#clip0_1568_45)">
<path d="M72.5554 36.5809C72.564 44.1148 70.5038 50.8005 67.2629 57.1654C62.4481 66.6271 55.7983 74.7095 48.2128 82.0398C45.0979 85.0531 41.7422 87.8214 38.4701 90.6739C37.5165 91.502 37.0057 91.4983 36.0501 90.7666C25.4787 82.683 16.0899 73.4656 8.86417 62.2082C5.16193 56.4403 2.28384 50.3017 1.14229 43.4705C-0.6676 32.6265 1.90778 22.8772 8.85029 14.3755C14.4858 7.48008 21.7836 3.18795 30.5674 1.8143C43.2921 -0.174207 54.2304 3.58571 63.0531 12.9905C69.3156 19.6729 72.3256 27.7603 72.5554 36.5809ZM9.56628 37.5244C9.72878 52.405 21.9189 64.4119 36.7122 64.2705C40.272 64.2438 43.7914 63.5143 47.0686 62.124C50.3458 60.7337 53.3162 58.7099 55.8094 56.1688C58.3025 53.6277 60.2693 50.6193 61.597 47.3163C62.9246 44.0132 63.5869 40.4804 63.5459 36.9208C63.3873 22.1503 51.1495 10.1314 36.3963 10.2748C21.4078 10.4211 9.4159 22.6111 9.56628 37.5244Z" fill="#396C03"/>
<path d="M42.6482 44.6945C42.6237 42.7268 42.5767 40.7569 42.5897 38.7888C42.6088 38.5321 42.5555 38.2753 42.4358 38.0475C42.3161 37.8197 42.1349 37.6301 41.9127 37.5002C37.2374 34.2183 36.5644 27.0131 40.5166 22.8803C43.2477 20.022 47.3153 19.9264 50.1284 22.6556C54.2948 26.69 53.8326 34.0144 49.173 37.44C48.9669 37.5674 48.8004 37.7496 48.6921 37.9664C48.5838 38.1831 48.538 38.4257 48.5598 38.667C48.6325 42.6338 48.6819 46.6017 48.7078 50.5707C48.7352 51.2173 48.5492 51.8549 48.1784 52.3852C47.8077 52.9156 47.2728 53.3093 46.6562 53.5057C46.0614 53.723 45.4109 53.7341 44.809 53.5372C44.2072 53.3404 43.689 52.947 43.3376 52.4202C42.9823 51.8414 42.777 51.183 42.7404 50.5047C42.6488 48.5704 42.6723 46.6322 42.6482 44.6945Z" fill="#396C03"/>
<path d="M24.5822 38.9803C22.2957 38.7333 20.7374 37.6536 20.1486 35.4074C20.0774 35.1356 20.0394 34.8561 20.0356 34.5751C19.9863 30.6097 19.8994 26.6447 19.9177 22.6784C19.9431 22.3827 20.0298 22.0955 20.1722 21.835C20.3147 21.5746 20.5098 21.3467 20.7452 21.1659C21.7062 20.5205 22.8404 21.3276 22.8714 22.6142C22.9204 24.7393 22.9243 26.87 22.9506 28.9854L22.9617 29.8766L25.9658 29.8392L25.8868 23.4831C25.8825 23.1401 25.8632 22.7948 25.874 22.4516C25.9153 21.5498 26.4887 20.9417 27.3018 20.8966C27.5078 20.8838 27.7141 20.9146 27.9074 20.9867C28.1006 21.0589 28.2766 21.1709 28.4238 21.3154C28.5711 21.4599 28.6863 21.6338 28.762 21.8257C28.8377 22.0177 28.8722 22.2234 28.8633 22.4295C28.9183 24.6447 28.9184 26.8631 28.946 29.0811L28.955 29.8071L31.9591 29.7697L31.9412 28.3278C31.9171 26.3926 31.893 24.455 31.8689 22.5198C31.8562 21.4934 32.469 20.8373 33.3503 20.8339C34.2316 20.8304 34.8327 21.4514 34.8497 22.4127C34.9148 26.4405 34.9849 30.4682 34.9999 34.4967C34.9839 35.4554 34.6541 36.3824 34.0612 37.1359C33.4682 37.8893 32.6447 38.4278 31.7167 38.6688C31.3624 38.7658 31.0001 38.8304 30.5808 38.9333L30.6598 45.292C30.6827 47.1345 30.7257 48.9793 30.7286 50.8195C30.7451 51.2194 30.6813 51.6185 30.5408 51.9932C30.4004 52.3679 30.1862 52.7107 29.911 53.0011C29.6357 53.2916 29.305 53.5239 28.9384 53.6843C28.5717 53.8447 28.1766 53.9299 27.7765 53.9348C27.3764 53.9398 26.9793 53.8645 26.6088 53.7133C26.2383 53.562 25.9019 53.338 25.6195 53.0545C25.3371 52.771 25.1144 52.4336 24.9647 52.0625C24.815 51.6914 24.7413 51.294 24.7479 50.8939C24.6803 47.2717 24.6578 43.6465 24.6127 40.024L24.5822 38.9803Z" fill="#396C03"/>
</g>
<defs>
<clipPath id="clip0_1568_45">
<rect width="71.974" height="90" fill="white" transform="translate(0.142853 1.75439) rotate(-0.712402)"/>
</clipPath>
</defs>
</svg>
