<svg width="95" height="92" viewBox="0 0 95 92" fill="none" xmlns="http://www.w3.org/2000/svg">
<g clip-path="url(#clip0_1568_38)">
<path d="M93.6553 36.6371C93.3753 38.4054 93.1806 40.1822 92.803 41.9376C89.7833 55.863 77.5992 66.684 62.9722 68.4774C45.3906 70.6355 29.1627 60.2221 24.3788 43.711C19.8871 28.1825 27.8179 11.2184 42.8622 4.20065C46.6571 2.3973 50.7556 1.27056 54.9616 0.874354C55.137 0.842912 55.3086 0.794131 55.4737 0.728778L60.395 0.667585C61.5903 0.824963 62.7878 0.961079 63.981 1.13972C77.8621 3.20626 89.4099 13.4962 92.6135 26.6931C93.0421 28.455 93.2764 30.2594 93.5982 32.0439L93.6553 36.6371ZM55.5092 17.6906L55.7542 37.3891L76.1042 37.1361L76.0385 31.854L61.0944 32.0399L60.9151 17.6234L55.5092 17.6906Z" fill="#396C03"/>
<path d="M27.9755 68.7426L11.5071 85.2136L7.69447 81.5991L24.1213 65.1145L27.9755 68.7426Z" fill="#396C03"/>
<path d="M38.7346 71.0319L42.4772 74.5057L28.2584 88.7591L24.5079 85.2358L38.7346 71.0319Z" fill="#396C03"/>
<path d="M7.20351 68.9487L3.50744 65.5003C8.2447 60.7571 12.9932 56.0066 17.753 51.2489L21.4494 54.7162L7.20351 68.9487Z" fill="#396C03"/>
<path d="M4.46364 51.5206L0.648982 47.9368L13.6078 34.9897C14.8917 36.196 16.1854 37.4068 17.3978 38.5431L4.46364 51.5206Z" fill="#396C03"/>
<path d="M46.4442 91.1189L42.6275 87.5658L55.6443 74.5779L59.4048 78.1199L46.4442 91.1189Z" fill="#396C03"/>
</g>
<defs>
<clipPath id="clip0_1568_38">
<rect width="93.1396" height="90.2711" fill="white" transform="translate(0.0705566 1.41748) rotate(-0.712402)"/>
</clipPath>
</defs>
</svg>
