<svg width="73" height="92" viewBox="0 0 73 92" fill="none" xmlns="http://www.w3.org/2000/svg">
<g clip-path="url(#clip0_1568_49)">
<path d="M8.11653 38.682C2.23941 37.875 -0.130298 34.3842 0.591433 27.5489L71.7892 26.6636C71.6784 28.604 71.838 30.5822 71.3944 32.4182C70.714 35.2693 68.7001 37.031 65.8191 37.718C65.3598 37.8264 64.8912 37.888 64.3322 37.9888L64.3483 39.2882C64.534 54.2176 64.7196 69.149 64.9053 84.0823C64.9556 88.1241 62.7107 90.4226 58.6571 90.473L15.0744 91.0149C11.0384 91.0651 8.74275 88.8084 8.69235 84.7549C8.50712 69.8587 8.32191 54.9635 8.13671 40.0693L8.11653 38.682ZM24.921 35.9443C21.565 39.2422 17.1836 39.3495 13.7761 36.1474C11.875 36.8399 11.814 38.3074 11.8442 40.032C12.0491 51.5553 12.1631 63.0798 12.3064 74.6068L12.3234 75.9736L61.0538 75.3677L61.0121 72.0181C60.8706 60.6397 60.7292 49.2613 60.5877 37.8828C60.5791 37.1936 60.444 36.7112 59.7973 36.3701C59.4015 36.1105 59.0323 35.8125 58.695 35.4803C55.2639 38.8731 50.8811 38.8689 47.4471 35.6583C43.9942 38.9516 39.8005 39.0566 36.1785 35.8278C32.6613 39.1424 28.4666 39.1594 24.921 35.9443ZM36.8085 85.08C38.017 85.065 39.2227 85.0705 40.4309 85.0349C41.5862 84.9971 42.3575 84.2659 42.3888 83.2505C42.4202 82.2351 41.6199 81.3327 40.4317 81.3269C37.9812 81.3202 35.5301 81.3507 33.0785 81.4184C32.8295 81.4116 32.5818 81.455 32.3499 81.5458C32.118 81.6366 31.9067 81.7731 31.7286 81.9472C31.5504 82.1212 31.4091 82.3292 31.3128 82.5589C31.2166 82.7887 31.1675 83.0353 31.1685 83.2844C31.167 84.3493 31.9864 85.1253 33.1863 85.1368C34.3863 85.1482 35.6002 85.1009 36.8086 85.0859L36.8085 85.08Z" fill="#396C03"/>
<path d="M64.004 11.5966L7.84709 12.2949C7.8201 10.1244 7.6176 7.99421 7.81162 5.90312C8.07813 3.03667 10.4917 1.09105 13.5184 1.02995C18.531 0.96762 23.5437 0.905291 28.5593 0.842925L57.5323 0.482662C61.6034 0.43204 63.8899 2.65364 63.9461 6.70123L64.004 11.5966ZM35.7417 8.24882C36.9853 8.23335 38.2293 8.24135 39.4726 8.20242C40.6455 8.16144 41.3992 7.43628 41.4335 6.41792C41.4678 5.39955 40.6763 4.49999 39.4793 4.49141C37.0267 4.47888 34.5756 4.50936 32.126 4.58284C31.8677 4.57593 31.6108 4.62292 31.3717 4.72081C31.1326 4.8187 30.9165 4.96535 30.7372 5.1514C30.5579 5.33745 30.4193 5.55882 30.3303 5.80139C30.2413 6.04396 30.2039 6.30242 30.2203 6.56028C30.283 7.58624 31.0602 8.28649 32.2279 8.29544C33.3956 8.30439 34.5714 8.26337 35.7417 8.24882Z" fill="#396C03"/>
<path d="M1.361 23.6171C2.72239 21.5115 4.06521 19.5645 5.26318 17.5284C5.89232 16.4586 6.62994 16.0915 7.88534 16.0789C26.728 15.8876 45.5712 15.6533 64.4148 15.376C65.3827 15.3639 65.9348 15.6504 66.4494 16.4537C67.7955 18.5432 69.223 20.579 70.7168 22.7547L1.361 23.6171Z" fill="#396C03"/>
<path d="M50.1914 58.6582L22.6819 59.0002C22.7877 58.5442 22.8528 58.1181 22.9801 57.7322C24.6758 52.5569 28.1554 49.2838 33.4432 47.9918C34.2533 47.794 34.5489 47.4999 34.4625 46.6884C34.4028 46.1428 34.4197 45.5917 34.5125 45.0508C34.5608 44.6285 34.7673 44.2401 35.0905 43.9639C35.4136 43.6877 35.8294 43.5443 36.2542 43.5624C37.2074 43.5505 37.8353 44.0326 38.0904 44.9653C38.1287 45.1061 38.154 45.2501 38.1661 45.3955C38.2313 46.1516 38.0349 47.1045 38.4254 47.6071C38.7742 48.0575 39.7764 47.9717 40.4686 48.1949C45.4169 49.7996 48.6758 53.0798 50.1403 58.0868C50.1755 58.2264 50.2017 58.3682 50.2189 58.5112C50.2157 58.5611 50.2064 58.6105 50.1914 58.6582Z" fill="#396C03"/>
<path d="M36.4616 66.3798C31.7413 66.4385 27.0229 66.4971 22.3065 66.5558C21.8703 66.5818 21.4326 66.5418 21.0084 66.437C20.5911 66.3375 20.2262 66.085 19.986 65.7295C19.7459 65.374 19.6479 64.9413 19.7114 64.517C19.7329 64.09 19.9091 63.6855 20.2071 63.3789C20.505 63.0724 20.9044 62.8848 21.3305 62.8511C21.6228 62.8229 21.9166 62.8123 22.2102 62.8196L50.8518 62.4635C51.0688 62.4608 51.2888 62.4581 51.5088 62.4553C52.5744 62.5095 53.3548 63.2244 53.4137 64.1918C53.4727 65.1591 52.7034 66.0429 51.6077 66.165C51.3151 66.1882 51.0215 66.1968 50.728 66.1906L36.4616 66.3798Z" fill="#396C03"/>
</g>
<defs>
<clipPath id="clip0_1568_49">
<rect width="71.3588" height="90" fill="white" transform="translate(0.108284 1.19678) rotate(-0.712402)"/>
</clipPath>
</defs>
</svg>
