<svg width="26" height="26" viewBox="0 0 26 26" fill="none" xmlns="http://www.w3.org/2000/svg">
<path fill-rule="evenodd" clip-rule="evenodd" d="M13.1073 24.5761C19.32 24.4989 24.2938 19.3998 24.2166 13.1871C24.1393 6.97443 19.0403 2.00063 12.8275 2.07788C6.61484 2.15514 1.64104 7.25418 1.71829 13.4669C1.79555 19.6796 6.89459 24.6534 13.1073 24.5761ZM13.1228 25.826C20.0259 25.7402 25.5523 20.0746 25.4665 13.1716C25.3806 6.26857 19.715 0.742145 12.812 0.82798C5.90898 0.913815 0.382556 6.5794 0.468391 13.4824C0.554226 20.3855 6.21981 25.9119 13.1228 25.826Z" fill="#333333" fill-opacity="0.3"/>
<path fill-rule="evenodd" clip-rule="evenodd" d="M6.09296 13.4125C6.08867 13.0674 6.36498 12.7841 6.71014 12.7798L19.2092 12.6244C19.5543 12.6201 19.8376 12.8964 19.8419 13.2416C19.8462 13.5868 19.5699 13.87 19.2247 13.8743L6.72568 14.0297C6.38052 14.034 6.09725 13.7577 6.09296 13.4125Z" fill="#333333"/>
</svg>
