<svg width="27" height="26" viewBox="0 0 27 26" fill="none" xmlns="http://www.w3.org/2000/svg">
<path fill-rule="evenodd" clip-rule="evenodd" d="M13.7148 24.5844C19.9275 24.5072 24.9013 19.4081 24.824 13.1954C24.7468 6.98273 19.6477 2.00893 13.435 2.08618C7.22229 2.16344 2.2485 7.26248 2.32575 13.4752C2.403 19.6879 7.50205 24.6617 13.7148 24.5844ZM13.7303 25.8343C20.6333 25.7485 26.1597 20.0829 26.0739 13.1799C25.9881 6.27687 20.3225 0.750446 13.4195 0.836281C6.51643 0.922116 0.990008 6.5877 1.07584 13.4907C1.16168 20.3938 6.82727 25.9202 13.7303 25.8343Z" fill="#333333" fill-opacity="0.3"/>
<path fill-rule="evenodd" clip-rule="evenodd" d="M6.70041 13.4209C6.69612 13.0757 6.97243 12.7924 7.31759 12.7881L19.8166 12.6327C20.1618 12.6284 20.4451 12.9047 20.4494 13.2499C20.4536 13.5951 20.1773 13.8783 19.8322 13.8826L7.33314 14.038C6.98797 14.0423 6.7047 13.766 6.70041 13.4209Z" fill="#333333"/>
<path fill-rule="evenodd" clip-rule="evenodd" d="M13.4894 6.46098C13.8346 6.45669 14.1178 6.733 14.1221 7.07816L14.2775 19.5772C14.2818 19.9224 14.0055 20.2056 13.6604 20.2099C13.3152 20.2142 13.0319 19.9379 13.0276 19.5927L12.8722 7.0937C12.8679 6.74854 13.1442 6.46527 13.4894 6.46098Z" fill="#333333"/>
</svg>
