<svg width="147" height="50" viewBox="0 0 147 50" fill="none" xmlns="http://www.w3.org/2000/svg">
<path d="M11.593 26.9167L8.87187 26.8883C8.09712 26.8883 7.50188 26.8978 7.08616 26.9167C6.78382 29.5622 6.63265 31.7069 6.63265 33.3509C6.63265 34.9949 6.68934 36.1476 6.80271 36.809C6.19803 36.8468 5.8012 36.8656 5.61224 36.8656C4.53514 36.8656 3.76039 36.6767 3.28798 36.2988C2.81557 35.9208 2.57936 35.2595 2.57936 34.3146C2.57936 33.3509 2.84391 31.055 3.37301 27.4269C2.76833 27.6158 2.32426 27.7765 2.04081 27.9087C2.00302 27.493 1.98412 27.1812 1.98412 26.9734C1.98412 25.6695 2.57936 24.857 3.76984 24.5357C4.12887 21.9469 4.34618 19.7077 4.42176 17.818C3.45805 17.818 2.84391 17.6858 2.57936 17.4212C2.33371 17.1567 2.21088 16.5709 2.21088 15.6639C2.28647 14.8135 2.36205 14.2561 2.43764 13.9915C4.57294 14.275 6.91609 14.4167 9.46711 14.4167C12.0181 14.4167 14.4841 14.1899 16.8651 13.7364C16.6005 15.7205 15.3911 16.911 13.2369 17.3078C12.0654 17.5346 10.393 17.6858 8.21995 17.7614C8.20105 18.007 7.92705 20.2084 7.39795 24.3657C8.49394 24.4035 9.24035 24.4223 9.63718 24.4223C11.4323 24.4223 12.7078 24.1106 13.4637 23.487C13.5015 23.8649 13.5204 24.1484 13.5204 24.3373C13.5204 26.0569 12.8779 26.9167 11.593 26.9167ZM24.9583 22.1831C23.7301 22.1831 22.6341 23.0146 21.6704 24.6775C20.7066 26.3214 20.2248 27.9654 20.2248 29.6094C20.2248 33.0486 21.1129 34.7681 22.8892 34.7681C24.1552 34.7681 25.1851 33.9461 25.9788 32.3022C26.7724 30.6393 27.1692 28.778 27.1692 26.7183C27.1692 23.6948 26.4323 22.1831 24.9583 22.1831ZM26.7157 20.114C27.8495 20.114 28.8132 20.6714 29.6069 21.7863C30.4005 22.9012 30.7973 24.394 30.7973 26.2648C30.7973 28.3623 30.3722 30.2897 29.5218 32.0471C28.577 34.0312 27.2354 35.4012 25.4969 36.157C24.5143 36.5916 23.4372 36.809 22.2656 36.809C20.6216 36.809 19.1855 36.1759 17.9572 34.9099C16.7478 33.6249 16.1432 31.792 16.1432 29.411C16.1432 27.0112 16.7289 24.9042 17.9005 23.0902C19.0721 21.2572 20.6216 20.1045 22.549 19.6321C22.7569 19.6321 22.9459 19.6982 23.1159 19.8305C23.3049 19.9439 23.3994 20.0667 23.3994 20.199C21.4908 21.5217 20.3476 23.3641 19.9697 25.7262C20.3665 24.668 20.8484 23.7515 21.4153 22.9768C22.0011 22.202 22.6057 21.6162 23.2293 21.2194C24.4198 20.4824 25.5819 20.114 26.7157 20.114ZM42.4523 22.1831C41.224 22.1831 40.128 23.0146 39.1643 24.6775C38.2006 26.3214 37.7187 27.9654 37.7187 29.6094C37.7187 33.0486 38.6069 34.7681 40.3831 34.7681C41.6492 34.7681 42.6791 33.9461 43.4727 32.3022C44.2664 30.6393 44.6632 28.778 44.6632 26.7183C44.6632 23.6948 43.9262 22.1831 42.4523 22.1831ZM44.2097 20.114C45.3435 20.114 46.3072 20.6714 47.1008 21.7863C47.8945 22.9012 48.2913 24.394 48.2913 26.2648C48.2913 28.3623 47.8661 30.2897 47.0158 32.0471C46.071 34.0312 44.7293 35.4012 42.9909 36.157C42.0082 36.5916 40.9311 36.809 39.7596 36.809C38.1156 36.809 36.6794 36.1759 35.4512 34.9099C34.2418 33.6249 33.6371 31.792 33.6371 29.411C33.6371 27.0112 34.2229 24.9042 35.3945 23.0902C36.5661 21.2572 38.1156 20.1045 40.043 19.6321C40.2509 19.6321 40.4398 19.6982 40.6099 19.8305C40.7989 19.9439 40.8933 20.0667 40.8933 20.199C38.9848 21.5217 37.8416 23.3641 37.4636 25.7262C37.8605 24.668 38.3423 23.7515 38.9092 22.9768C39.495 22.202 40.0997 21.6162 40.7233 21.2194C41.9138 20.4824 43.0759 20.114 44.2097 20.114ZM54.9293 30.6582C54.9293 32.9068 55.6095 34.0312 56.9701 34.0312C57.6881 34.0312 58.3873 33.6438 59.0676 32.8691C59.7478 32.0943 60.2958 31.055 60.7116 29.7511C61.1462 28.4473 61.5147 27.0584 61.817 25.5845C62.1382 24.0917 62.3745 22.5138 62.5256 20.8509C62.7902 17.6385 62.9224 15.1348 62.9224 13.3396C62.9224 11.5255 62.8469 10.165 62.6957 9.25797C64.0562 9.56031 65.0105 10.2028 65.5585 11.1854C66.1065 12.168 66.3805 13.4057 66.3805 14.8985C66.3805 16.3914 66.0593 19.1691 65.4168 23.2319C64.7932 27.2946 64.4814 30.2613 64.4814 32.1321C64.4814 34.0028 64.5664 35.5901 64.7365 36.894C63.3949 36.535 62.4689 35.8925 61.9587 34.9666C61.4674 34.0217 61.2218 32.8407 61.2218 31.4235C60.636 33.0486 59.7573 34.3335 58.5857 35.2783C57.4141 36.2232 56.2048 36.6956 54.9576 36.6956C53.7104 36.6956 52.69 36.2232 51.8964 35.2783C51.1216 34.3146 50.7343 32.9068 50.7343 31.055C50.7343 28.126 51.5373 25.6128 53.1435 23.5153C54.7497 21.3989 56.6488 20.3407 58.8408 20.3407C59.4644 20.3407 60.447 20.4919 61.7887 20.7942C60.6171 21.0966 59.5683 21.6257 58.6424 22.3815C57.7354 23.1185 57.0268 23.9688 56.5166 24.9326C55.4584 26.8411 54.9293 28.7496 54.9293 30.6582ZM82.0327 16.6843V19.3203H76.789V36.3838H73.5577V19.3203H68.2856V16.6843H82.0327ZM86.9492 18.6967C86.3634 18.6967 85.8721 18.4983 85.4753 18.1015C85.0784 17.7047 84.88 17.2134 84.88 16.6276C84.88 16.0418 85.0784 15.5505 85.4753 15.1537C85.8721 14.7568 86.3634 14.5584 86.9492 14.5584C87.5161 14.5584 87.9979 14.7568 88.3948 15.1537C88.7916 15.5505 88.99 16.0418 88.99 16.6276C88.99 17.2134 88.7916 17.7047 88.3948 18.1015C87.9979 18.4983 87.5161 18.6967 86.9492 18.6967ZM88.5365 20.7659V36.3838H85.3052V20.7659H88.5365ZM111.685 20.5108C112.913 20.5108 114.009 20.7659 114.973 21.2761C115.955 21.7863 116.721 22.5422 117.269 23.5437C117.836 24.5452 118.119 25.7545 118.119 27.1718V36.3838H114.916V27.6536C114.916 26.2553 114.566 25.1877 113.867 24.4507C113.168 23.6948 112.214 23.3169 111.004 23.3169C109.795 23.3169 108.831 23.6948 108.113 24.4507C107.414 25.1877 107.065 26.2553 107.065 27.6536V36.3838H103.862V27.6536C103.862 26.2553 103.512 25.1877 102.813 24.4507C102.114 23.6948 101.159 23.3169 99.9501 23.3169C98.7407 23.3169 97.777 23.6948 97.0589 24.4507C96.3598 25.1877 96.0102 26.2553 96.0102 27.6536V36.3838H92.7789V20.7659H96.0102V22.5516C96.5393 21.9091 97.2101 21.4084 98.0226 21.0493C98.8352 20.6903 99.7044 20.5108 100.63 20.5108C101.878 20.5108 102.992 20.7753 103.975 21.3044C104.958 21.8335 105.713 22.5988 106.243 23.6004C106.715 22.6555 107.452 21.9091 108.453 21.3611C109.455 20.7942 110.532 20.5108 111.685 20.5108ZM136.545 28.1922C136.545 28.778 136.507 29.3071 136.431 29.7795H124.498C124.593 31.0267 125.056 32.0282 125.887 32.784C126.719 33.5399 127.739 33.9178 128.948 33.9178C130.687 33.9178 131.915 33.1903 132.633 31.7353H136.12C135.647 33.1714 134.787 34.3524 133.54 35.2783C132.312 36.1854 130.781 36.6389 128.948 36.6389C127.456 36.6389 126.114 36.3082 124.923 35.6468C123.752 34.9666 122.826 34.0217 122.146 32.8124C121.484 31.5841 121.154 30.1669 121.154 28.5607C121.154 26.9545 121.475 25.5467 122.117 24.3373C122.779 23.109 123.695 22.1642 124.867 21.5029C126.057 20.8415 127.418 20.5108 128.948 20.5108C130.422 20.5108 131.736 20.832 132.888 21.4745C134.041 22.117 134.939 23.024 135.581 24.1956C136.224 25.3483 136.545 26.6805 136.545 28.1922ZM133.172 27.1718C133.153 25.9813 132.728 25.027 131.896 24.309C131.065 23.5909 130.035 23.2319 128.807 23.2319C127.692 23.2319 126.738 23.5909 125.944 24.309C125.15 25.0081 124.678 25.9624 124.527 27.1718H133.172Z" fill="#396C03"/>
<path d="M140.508 -0.862061H138.534C138.251 -0.862061 138.023 -0.634129 138.023 -0.351494V10.9539C138.023 11.118 138.101 11.2685 138.233 11.3642L145.021 16.3149C145.249 16.479 145.568 16.4334 145.732 16.2054L146.904 14.6054V14.6008C147.068 14.3729 147.018 14.0538 146.79 13.8897L141.014 9.71396V-0.351494C141.018 -0.634129 140.786 -0.862061 140.508 -0.862061Z" fill="#FF8B00"/>
</svg>
