<svg width="638" height="243" viewBox="0 0 638 243" fill="none" xmlns="http://www.w3.org/2000/svg">
<g filter="url(#filter0_d_13_108)">
<path d="M41.065 33.75C41.065 27.6833 40.22 23.285 38.53 20.555C36.8833 17.825 34.6083 16.46 31.705 16.46C28.845 16.46 26.115 17.7383 23.515 20.295C20.9583 22.8083 18.9433 25.9933 17.47 29.85C16.04 33.7067 15.325 37.6067 15.325 41.55C15.325 46.9667 16.2133 51.4083 17.99 54.875C19.81 58.3417 22.54 60.075 26.18 60.075C29.2133 60.075 31.8783 58.7533 34.175 56.11C36.515 53.4233 38.2483 50.1083 39.375 46.165C40.5017 42.2217 41.065 38.0833 41.065 33.75ZM42.235 57.54C40.285 59.6633 37.8367 61.375 34.89 62.675C31.9867 63.975 28.8017 64.625 25.335 64.625C21.8683 64.625 18.8133 63.845 16.17 62.285C13.57 60.725 11.49 58.645 9.93 56.045C6.81 50.845 5.25 44.7783 5.25 37.845C5.25 30.9117 6.96167 24.7367 10.385 19.32C13.8517 13.9033 18.4667 10.48 24.23 9.05C24.5767 9.13666 24.9017 9.31 25.205 9.57C25.5517 9.83 25.7467 10.1117 25.79 10.415C20.2 14.4883 16.82 20.035 15.65 27.055C17.47 21.9417 20.2 17.955 23.84 15.095C27.5233 12.1917 31.4667 10.74 35.67 10.74C39.8733 10.74 43.4483 12.56 46.395 16.2C49.385 19.7967 50.88 25.0183 50.88 31.865C50.88 38.5817 49.6233 44.6267 47.11 50C45.81 52.86 44.185 55.3733 42.235 57.54ZM68.2193 41.875C69.7793 36.2417 71.6426 32.1033 73.8093 29.46C76.0193 26.7733 78.0559 25.43 79.9193 25.43C81.8259 25.43 83.2559 26.145 84.2093 27.575C85.1626 28.9617 85.6393 30.7817 85.6393 33.035C85.6393 35.245 84.9676 37.2817 83.6243 39.145C82.3243 41.0083 80.5259 41.94 78.2293 41.94C77.6226 41.94 76.9076 41.7667 76.0843 41.42C77.4276 39.73 78.0993 37.6933 78.0993 35.31C78.0993 33.9233 77.5359 33.23 76.4093 33.23C75.5859 33.23 74.6976 33.815 73.7443 34.985C72.7909 36.1117 71.8809 37.6933 71.0143 39.73C70.1476 41.7233 69.4109 44.3017 68.8043 47.465C68.2409 50.585 67.9593 53.9217 67.9593 57.475C67.9593 57.9083 68.0676 59.75 68.2843 63C66.8976 63.0867 66.0093 63.13 65.6193 63.13C63.1493 63.13 61.3726 62.6967 60.2893 61.83C59.2059 60.9633 58.6643 59.5333 58.6643 57.54C58.6643 56.6733 59.1193 53.3367 60.0293 47.53C60.9393 41.7233 61.3943 37.1083 61.3943 33.685C61.3943 30.2183 61.0259 27.0333 60.2893 24.13C63.4526 25.1267 65.6626 26.5567 66.9193 28.42C68.1759 30.24 68.8043 32.385 68.8043 34.855C68.8043 37.2817 68.6093 39.6217 68.2193 41.875ZM96.1621 49.87C96.1621 55.0267 97.7221 57.605 100.842 57.605C102.489 57.605 104.092 56.7167 105.652 54.94C107.212 53.1633 108.469 50.78 109.422 47.79C110.419 44.8 111.264 41.615 111.957 38.235C112.694 34.8117 113.235 31.1933 113.582 27.38C114.189 20.0133 114.492 14.2717 114.492 10.155C114.492 5.995 114.319 2.875 113.972 0.794999C117.092 1.48833 119.28 2.96166 120.537 5.215C121.794 7.46833 122.422 10.3067 122.422 13.73C122.422 17.1533 121.685 23.5233 120.212 32.84C118.782 42.1567 118.067 48.96 118.067 53.25C118.067 57.54 118.262 61.18 118.652 64.17C115.575 63.3467 113.452 61.8733 112.282 59.75C111.155 57.5833 110.592 54.875 110.592 51.625C109.249 55.3517 107.234 58.2983 104.547 60.465C101.86 62.6317 99.0871 63.715 96.2271 63.715C93.3671 63.715 91.0271 62.6317 89.2071 60.465C87.4305 58.255 86.5421 55.0267 86.5421 50.78C86.5421 44.0633 88.3838 38.3 92.0671 33.49C95.7505 28.6367 100.105 26.21 105.132 26.21C106.562 26.21 108.815 26.5567 111.892 27.25C109.205 27.9433 106.8 29.1567 104.677 30.89C102.597 32.58 100.972 34.53 99.8021 36.74C97.3755 41.1167 96.1621 45.4933 96.1621 49.87ZM143.171 47.01C141.091 47.01 139.054 46.7717 137.061 46.295C137.018 46.7283 136.996 47.4 136.996 48.31C136.996 51.9067 137.668 54.615 139.011 56.435C140.354 58.255 141.958 59.165 143.821 59.165C145.684 59.165 147.461 58.6017 149.151 57.475C150.841 56.3483 152.314 54.7883 153.571 52.795C155.131 53.1417 155.911 53.9433 155.911 55.2C152.098 61.05 147.179 63.975 141.156 63.975C137.516 63.975 134.331 62.5883 131.601 59.815C128.871 56.9983 127.506 53.0983 127.506 48.115C127.506 44.3883 128.221 40.8567 129.651 37.52C131.081 34.14 133.356 31.3017 136.476 29.005C139.596 26.665 143.041 25.495 146.811 25.495C150.624 25.495 153.419 26.3617 155.196 28.095C156.973 29.8283 157.861 32.1033 157.861 34.92C157.861 38.9933 156.431 42.0267 153.571 44.02C150.754 46.0133 147.288 47.01 143.171 47.01ZM145.901 29.525C143.691 29.525 141.828 30.89 140.311 33.62C138.794 36.35 137.798 39.665 137.321 43.565H138.296C142.066 43.565 144.839 42.59 146.616 40.64C148.436 38.69 149.346 36.35 149.346 33.62C149.346 32.4933 149.043 31.54 148.436 30.76C147.873 29.9367 147.028 29.525 145.901 29.525ZM174.733 41.875C176.293 36.2417 178.156 32.1033 180.323 29.46C182.533 26.7733 184.57 25.43 186.433 25.43C188.34 25.43 189.77 26.145 190.723 27.575C191.676 28.9617 192.153 30.7817 192.153 33.035C192.153 35.245 191.481 37.2817 190.138 39.145C188.838 41.0083 187.04 41.94 184.743 41.94C184.136 41.94 183.421 41.7667 182.598 41.42C183.941 39.73 184.613 37.6933 184.613 35.31C184.613 33.9233 184.05 33.23 182.923 33.23C182.1 33.23 181.211 33.815 180.258 34.985C179.305 36.1117 178.395 37.6933 177.528 39.73C176.661 41.7233 175.925 44.3017 175.318 47.465C174.755 50.585 174.473 53.9217 174.473 57.475C174.473 57.9083 174.581 59.75 174.798 63C173.411 63.0867 172.523 63.13 172.133 63.13C169.663 63.13 167.886 62.6967 166.803 61.83C165.72 60.9633 165.178 59.5333 165.178 57.54C165.178 56.6733 165.633 53.3367 166.543 47.53C167.453 41.7233 167.908 37.1083 167.908 33.685C167.908 30.2183 167.54 27.0333 166.803 24.13C169.966 25.1267 172.176 26.5567 173.433 28.42C174.69 30.24 175.318 32.385 175.318 34.855C175.318 37.2817 175.123 39.6217 174.733 41.875ZM238.886 26.99C238.886 29.07 238.518 30.5217 237.781 31.345C237.044 32.125 235.744 32.515 233.881 32.515C232.061 32.515 230.653 32.4933 229.656 32.45C227.966 44.7567 227.121 53.575 227.121 58.905C227.121 61.4617 227.164 63.3033 227.251 64.43C227.381 65.6 227.684 67.5717 228.161 70.345C225.041 69.3483 222.744 67.7233 221.271 65.47C219.798 63.26 219.061 60.6383 219.061 57.605C219.061 53.055 219.711 46.3383 221.011 37.455C221.314 35.2017 221.509 33.7067 221.596 32.97C219.299 33.36 216.959 34.0967 214.576 35.18C214.489 34.2267 214.446 33.5117 214.446 33.035C214.446 30.695 215.161 29.1133 216.591 28.29C218.021 27.4667 220.079 27.0333 222.766 26.99C223.633 22.7433 224.781 19.0817 226.211 16.005C227.684 12.9283 229.288 10.61 231.021 9.05C234.314 6.01666 237.759 4.5 241.356 4.5C243.783 4.5 245.819 5.23666 247.466 6.71C249.156 8.14 250.001 9.91666 250.001 12.04C250.001 14.12 249.286 15.94 247.856 17.5C246.426 19.06 244.541 19.84 242.201 19.84C241.291 19.84 240.403 19.6883 239.536 19.385C240.229 18.865 240.901 17.955 241.551 16.655C242.244 15.355 242.591 14.1417 242.591 13.015C242.591 11.845 242.331 10.935 241.811 10.285C241.334 9.635 240.684 9.31 239.861 9.31C238.084 9.31 236.264 10.805 234.401 13.795C232.581 16.7417 231.216 21.205 230.306 27.185C234.163 27.185 236.979 26.47 238.756 25.04C238.843 25.9067 238.886 26.5567 238.886 26.99ZM262.169 30.435C259.352 30.435 256.839 32.3417 254.629 36.155C252.419 39.925 251.314 43.695 251.314 47.465C251.314 55.3517 253.351 59.295 257.424 59.295C260.327 59.295 262.689 57.41 264.509 53.64C266.329 49.8267 267.239 45.5583 267.239 40.835C267.239 33.9017 265.549 30.435 262.169 30.435ZM266.199 25.69C268.799 25.69 271.009 26.9683 272.829 29.525C274.649 32.0817 275.559 35.505 275.559 39.795C275.559 44.605 274.584 49.025 272.634 53.055C270.467 57.605 267.391 60.7467 263.404 62.48C261.151 63.4767 258.681 63.975 255.994 63.975C252.224 63.975 248.931 62.5233 246.114 59.62C243.341 56.6733 241.954 52.47 241.954 47.01C241.954 41.5067 243.297 36.675 245.984 32.515C248.671 28.3117 252.224 25.6683 256.644 24.585C257.121 24.585 257.554 24.7367 257.944 25.04C258.377 25.3 258.594 25.5817 258.594 25.885C254.217 28.9183 251.596 33.1433 250.729 38.56C251.639 36.1333 252.744 34.0317 254.044 32.255C255.387 30.4783 256.774 29.135 258.204 28.225C260.934 26.535 263.599 25.69 266.199 25.69ZM302.286 30.435C299.47 30.435 296.956 32.3417 294.746 36.155C292.536 39.925 291.431 43.695 291.431 47.465C291.431 55.3517 293.468 59.295 297.541 59.295C300.445 59.295 302.806 57.41 304.626 53.64C306.446 49.8267 307.356 45.5583 307.356 40.835C307.356 33.9017 305.666 30.435 302.286 30.435ZM306.316 25.69C308.916 25.69 311.126 26.9683 312.946 29.525C314.766 32.0817 315.676 35.505 315.676 39.795C315.676 44.605 314.701 49.025 312.751 53.055C310.585 57.605 307.508 60.7467 303.521 62.48C301.268 63.4767 298.798 63.975 296.111 63.975C292.341 63.975 289.048 62.5233 286.231 59.62C283.458 56.6733 282.071 52.47 282.071 47.01C282.071 41.5067 283.415 36.675 286.101 32.515C288.788 28.3117 292.341 25.6683 296.761 24.585C297.238 24.585 297.671 24.7367 298.061 25.04C298.495 25.3 298.711 25.5817 298.711 25.885C294.335 28.9183 291.713 33.1433 290.846 38.56C291.756 36.1333 292.861 34.0317 294.161 32.255C295.505 30.4783 296.891 29.135 298.321 28.225C301.051 26.535 303.716 25.69 306.316 25.69ZM330.898 49.87C330.898 55.0267 332.458 57.605 335.578 57.605C337.225 57.605 338.828 56.7167 340.388 54.94C341.948 53.1633 343.205 50.78 344.158 47.79C345.155 44.8 346 41.615 346.693 38.235C347.43 34.8117 347.972 31.1933 348.318 27.38C348.925 20.0133 349.228 14.2717 349.228 10.155C349.228 5.995 349.055 2.875 348.708 0.794999C351.828 1.48833 354.017 2.96166 355.273 5.215C356.53 7.46833 357.158 10.3067 357.158 13.73C357.158 17.1533 356.422 23.5233 354.948 32.84C353.518 42.1567 352.803 48.96 352.803 53.25C352.803 57.54 352.998 61.18 353.388 64.17C350.312 63.3467 348.188 61.8733 347.018 59.75C345.892 57.5833 345.328 54.875 345.328 51.625C343.985 55.3517 341.97 58.2983 339.283 60.465C336.597 62.6317 333.823 63.715 330.963 63.715C328.103 63.715 325.763 62.6317 323.943 60.465C322.167 58.255 321.278 55.0267 321.278 50.78C321.278 44.0633 323.12 38.3 326.803 33.49C330.487 28.6367 334.842 26.21 339.868 26.21C341.298 26.21 343.552 26.5567 346.628 27.25C343.942 27.9433 341.537 29.1567 339.413 30.89C337.333 32.58 335.708 34.53 334.538 36.74C332.112 41.1167 330.898 45.4933 330.898 49.87ZM403.912 30.435C401.096 30.435 398.582 32.3417 396.372 36.155C394.162 39.925 393.057 43.695 393.057 47.465C393.057 55.3517 395.094 59.295 399.167 59.295C402.071 59.295 404.432 57.41 406.252 53.64C408.072 49.8267 408.982 45.5583 408.982 40.835C408.982 33.9017 407.292 30.435 403.912 30.435ZM407.942 25.69C410.542 25.69 412.752 26.9683 414.572 29.525C416.392 32.0817 417.302 35.505 417.302 39.795C417.302 44.605 416.327 49.025 414.377 53.055C412.211 57.605 409.134 60.7467 405.147 62.48C402.894 63.4767 400.424 63.975 397.737 63.975C393.967 63.975 390.674 62.5233 387.857 59.62C385.084 56.6733 383.697 52.47 383.697 47.01C383.697 41.5067 385.041 36.675 387.727 32.515C390.414 28.3117 393.967 25.6683 398.387 24.585C398.864 24.585 399.297 24.7367 399.687 25.04C400.121 25.3 400.337 25.5817 400.337 25.885C395.961 28.9183 393.339 33.1433 392.472 38.56C393.382 36.1333 394.487 34.0317 395.787 32.255C397.131 30.4783 398.517 29.135 399.947 28.225C402.677 26.535 405.342 25.69 407.942 25.69ZM449.684 25.495C452.241 25.495 454.061 26.2967 455.144 27.9C456.271 29.46 456.834 31.605 456.834 34.335C456.834 37.0217 456.401 40.8133 455.534 45.71C454.711 50.6067 454.299 54.1817 454.299 56.435C454.299 58.645 454.581 60.27 455.144 61.31C455.708 62.3067 456.661 63.1733 458.004 63.91C457.441 63.9533 456.639 63.975 455.599 63.975C451.959 63.975 449.359 63.4117 447.799 62.285C446.283 61.1583 445.524 59.1867 445.524 56.37C445.524 54.7667 445.958 51.6467 446.824 47.01C447.691 42.33 448.124 38.8417 448.124 36.545C448.124 33.685 447.258 32.255 445.524 32.255C444.528 32.255 443.401 32.84 442.144 34.01C440.888 35.18 439.674 36.7833 438.504 38.82C437.334 40.8133 436.359 43.3917 435.579 46.555C434.799 49.7183 434.409 52.8817 434.409 56.045C434.409 59.165 434.539 61.4833 434.799 63C433.413 63.0867 432.503 63.13 432.069 63.13C429.599 63.13 427.823 62.6967 426.739 61.83C425.656 60.9633 425.114 59.5333 425.114 57.54C425.114 56.6733 425.569 53.3367 426.479 47.53C427.389 41.7233 427.844 37.1083 427.844 33.685C427.844 30.2183 427.476 27.0333 426.739 24.13C429.903 25.1267 432.113 26.5567 433.369 28.42C434.626 30.24 435.254 32.3417 435.254 34.725C435.254 37.065 434.994 39.795 434.474 42.915C435.904 38.0617 438.158 33.945 441.234 30.565C444.311 27.185 447.128 25.495 449.684 25.495ZM466.778 61.375C466.258 60.5083 465.933 59.685 465.803 58.905C465.673 58.0817 465.608 56.825 465.608 55.135C465.608 53.445 466.323 46.7933 467.753 35.18C469.226 23.5667 469.963 15.5933 469.963 11.26C469.963 6.92666 469.703 4.11 469.183 2.81C472.433 3.67666 474.643 4.99833 475.813 6.775C477.026 8.50833 477.633 10.9783 477.633 14.185C477.633 16.0917 477.005 22.2883 475.748 32.775C474.491 43.2617 473.863 51.7117 473.863 58.125C473.863 59.5117 473.95 61.4617 474.123 63.975C470.18 63.8017 467.731 62.935 466.778 61.375ZM486.332 52.34C486.332 50.52 486.678 47.2267 487.372 42.46C488.065 37.6933 488.412 33.9883 488.412 31.345C488.412 28.7017 488.282 26.665 488.022 25.235C488.975 25.1483 489.863 25.105 490.687 25.105C493.2 25.105 494.933 25.5383 495.887 26.405C496.883 27.2283 497.382 28.6583 497.382 30.695C497.382 31.345 496.84 34.7683 495.757 40.965C494.717 47.1183 494.175 52.21 494.132 56.24C494.132 60.2267 494.392 62.805 494.912 63.975C491.532 63.1083 489.257 61.8083 488.087 60.075C486.917 58.2983 486.332 55.72 486.332 52.34ZM495.172 19.645C490.708 19.645 488.477 18.085 488.477 14.965C488.477 13.8383 488.802 12.3 489.452 10.35C490.665 10.1767 491.727 10.09 492.637 10.09C497.1 10.09 499.332 11.65 499.332 14.77C499.332 15.8967 499.007 17.435 498.357 19.385C497.143 19.5583 496.082 19.645 495.172 19.645ZM530.681 25.495C533.237 25.495 535.057 26.2967 536.141 27.9C537.267 29.46 537.831 31.605 537.831 34.335C537.831 37.0217 537.397 40.8133 536.531 45.71C535.707 50.6067 535.296 54.1817 535.296 56.435C535.296 58.645 535.577 60.27 536.141 61.31C536.704 62.3067 537.657 63.1733 539.001 63.91C538.437 63.9533 537.636 63.975 536.596 63.975C532.956 63.975 530.356 63.4117 528.796 62.285C527.279 61.1583 526.521 59.1867 526.521 56.37C526.521 54.7667 526.954 51.6467 527.821 47.01C528.687 42.33 529.121 38.8417 529.121 36.545C529.121 33.685 528.254 32.255 526.521 32.255C525.524 32.255 524.397 32.84 523.141 34.01C521.884 35.18 520.671 36.7833 519.501 38.82C518.331 40.8133 517.356 43.3917 516.576 46.555C515.796 49.7183 515.406 52.8817 515.406 56.045C515.406 59.165 515.536 61.4833 515.796 63C514.409 63.0867 513.499 63.13 513.066 63.13C510.596 63.13 508.819 62.6967 507.736 61.83C506.652 60.9633 506.111 59.5333 506.111 57.54C506.111 56.6733 506.566 53.3367 507.476 47.53C508.386 41.7233 508.841 37.1083 508.841 33.685C508.841 30.2183 508.472 27.0333 507.736 24.13C510.899 25.1267 513.109 26.5567 514.366 28.42C515.622 30.24 516.251 32.3417 516.251 34.725C516.251 37.065 515.991 39.795 515.471 42.915C516.901 38.0617 519.154 33.945 522.231 30.565C525.307 27.185 528.124 25.495 530.681 25.495ZM561.164 47.01C559.084 47.01 557.047 46.7717 555.054 46.295C555.011 46.7283 554.989 47.4 554.989 48.31C554.989 51.9067 555.661 54.615 557.004 56.435C558.347 58.255 559.951 59.165 561.814 59.165C563.677 59.165 565.454 58.6017 567.144 57.475C568.834 56.3483 570.307 54.7883 571.564 52.795C573.124 53.1417 573.904 53.9433 573.904 55.2C570.091 61.05 565.172 63.975 559.149 63.975C555.509 63.975 552.324 62.5883 549.594 59.815C546.864 56.9983 545.499 53.0983 545.499 48.115C545.499 44.3883 546.214 40.8567 547.644 37.52C549.074 34.14 551.349 31.3017 554.469 29.005C557.589 26.665 561.034 25.495 564.804 25.495C568.617 25.495 571.412 26.3617 573.189 28.095C574.966 29.8283 575.854 32.1033 575.854 34.92C575.854 38.9933 574.424 42.0267 571.564 44.02C568.747 46.0133 565.281 47.01 561.164 47.01ZM563.894 29.525C561.684 29.525 559.821 30.89 558.304 33.62C556.787 36.35 555.791 39.665 555.314 43.565H556.289C560.059 43.565 562.832 42.59 564.609 40.64C566.429 38.69 567.339 36.35 567.339 33.62C567.339 32.4933 567.036 31.54 566.429 30.76C565.866 29.9367 565.021 29.525 563.894 29.525ZM28.715 110.99C28.715 113.07 28.3467 114.522 27.61 115.345C26.8733 116.125 25.5733 116.515 23.71 116.515C21.89 116.515 20.4817 116.493 19.485 116.45C17.795 128.757 16.95 137.575 16.95 142.905C16.95 145.462 16.9933 147.303 17.08 148.43C17.21 149.6 17.5133 151.572 17.99 154.345C14.87 153.348 12.5733 151.723 11.1 149.47C9.62667 147.26 8.89 144.638 8.89 141.605C8.89 137.055 9.54 130.338 10.84 121.455C11.1433 119.202 11.3383 117.707 11.425 116.97C9.12833 117.36 6.78833 118.097 4.405 119.18C4.31833 118.227 4.275 117.512 4.275 117.035C4.275 114.695 4.99 113.113 6.42 112.29C7.85 111.467 9.90833 111.033 12.595 110.99C13.4617 106.743 14.61 103.082 16.04 100.005C17.5133 96.9283 19.1167 94.61 20.85 93.05C24.1433 90.0167 27.5883 88.5 31.185 88.5C33.6117 88.5 35.6483 89.2367 37.295 90.71C38.985 92.14 39.83 93.9167 39.83 96.04C39.83 98.12 39.115 99.94 37.685 101.5C36.255 103.06 34.37 103.84 32.03 103.84C31.12 103.84 30.2317 103.688 29.365 103.385C30.0583 102.865 30.73 101.955 31.38 100.655C32.0733 99.355 32.42 98.1417 32.42 97.015C32.42 95.845 32.16 94.935 31.64 94.285C31.1633 93.635 30.5133 93.31 29.69 93.31C27.9133 93.31 26.0933 94.805 24.23 97.795C22.41 100.742 21.045 105.205 20.135 111.185C23.9917 111.185 26.8083 110.47 28.585 109.04C28.6717 109.907 28.715 110.557 28.715 110.99ZM42.6382 125.875C44.1982 120.242 46.0615 116.103 48.2282 113.46C50.4382 110.773 52.4749 109.43 54.3382 109.43C56.2449 109.43 57.6749 110.145 58.6282 111.575C59.5815 112.962 60.0582 114.782 60.0582 117.035C60.0582 119.245 59.3865 121.282 58.0432 123.145C56.7432 125.008 54.9449 125.94 52.6482 125.94C52.0415 125.94 51.3265 125.767 50.5032 125.42C51.8465 123.73 52.5182 121.693 52.5182 119.31C52.5182 117.923 51.9549 117.23 50.8282 117.23C50.0049 117.23 49.1165 117.815 48.1632 118.985C47.2099 120.112 46.2999 121.693 45.4332 123.73C44.5665 125.723 43.8299 128.302 43.2232 131.465C42.6599 134.585 42.3782 137.922 42.3782 141.475C42.3782 141.908 42.4865 143.75 42.7032 147C41.3165 147.087 40.4282 147.13 40.0382 147.13C37.5682 147.13 35.7915 146.697 34.7082 145.83C33.6249 144.963 33.0832 143.533 33.0832 141.54C33.0832 140.673 33.5382 137.337 34.4482 131.53C35.3582 125.723 35.8132 121.108 35.8132 117.685C35.8132 114.218 35.4449 111.033 34.7082 108.13C37.8715 109.127 40.0815 110.557 41.3382 112.42C42.5949 114.24 43.2232 116.385 43.2232 118.855C43.2232 121.282 43.0282 123.622 42.6382 125.875ZM82.0861 114.435C79.2694 114.435 76.7561 116.342 74.5461 120.155C72.3361 123.925 71.2311 127.695 71.2311 131.465C71.2311 139.352 73.2678 143.295 77.3411 143.295C80.2444 143.295 82.6061 141.41 84.4261 137.64C86.2461 133.827 87.1561 129.558 87.1561 124.835C87.1561 117.902 85.4661 114.435 82.0861 114.435ZM86.1161 109.69C88.7161 109.69 90.9261 110.968 92.7461 113.525C94.5661 116.082 95.4761 119.505 95.4761 123.795C95.4761 128.605 94.5011 133.025 92.5511 137.055C90.3844 141.605 87.3078 144.747 83.3211 146.48C81.0678 147.477 78.5978 147.975 75.9111 147.975C72.1411 147.975 68.8478 146.523 66.0311 143.62C63.2578 140.673 61.8711 136.47 61.8711 131.01C61.8711 125.507 63.2144 120.675 65.9011 116.515C68.5878 112.312 72.1411 109.668 76.5611 108.585C77.0378 108.585 77.4711 108.737 77.8611 109.04C78.2944 109.3 78.5111 109.582 78.5111 109.885C74.1344 112.918 71.5128 117.143 70.6461 122.56C71.5561 120.133 72.6611 118.032 73.9611 116.255C75.3044 114.478 76.6911 113.135 78.1211 112.225C80.8511 110.535 83.5161 109.69 86.1161 109.69ZM131.368 140.11C131.368 142.277 131.498 144.573 131.758 147C130.372 147.087 129.462 147.13 129.028 147.13C126.602 147.13 124.847 146.718 123.763 145.895C122.68 145.028 122.138 143.772 122.138 142.125C122.138 140.478 122.593 137.098 123.503 131.985C124.457 126.828 124.933 122.928 124.933 120.285C124.933 117.598 124.067 116.255 122.333 116.255C121.38 116.255 120.34 116.84 119.213 118.01C118.087 119.137 117.025 120.697 116.028 122.69C115.032 124.64 114.187 127.153 113.493 130.23C112.843 133.307 112.518 136.275 112.518 139.135C112.518 141.952 112.648 144.573 112.908 147C111.522 147.087 110.612 147.13 110.178 147.13C107.752 147.13 105.997 146.718 104.913 145.895C103.83 145.028 103.288 143.598 103.288 141.605C103.288 141.128 103.722 137.9 104.588 131.92C105.498 125.94 105.953 121.217 105.953 117.75C105.953 114.24 105.585 111.033 104.848 108.13C108.055 109.127 110.287 110.557 111.543 112.42C112.8 114.283 113.428 116.58 113.428 119.31C113.428 120.697 113.277 122.452 112.973 124.575C114.447 120.242 116.483 116.645 119.083 113.785C121.727 110.925 124.262 109.495 126.688 109.495C129.158 109.495 130.935 110.405 132.018 112.225C133.145 114.045 133.708 116.667 133.708 120.09C135.355 116.927 137.24 114.37 139.363 112.42C141.487 110.47 143.437 109.495 145.213 109.495C147.857 109.495 149.72 110.297 150.803 111.9C151.93 113.46 152.493 115.605 152.493 118.335C152.493 121.022 152.06 124.813 151.193 129.71C150.37 134.607 149.958 138.182 149.958 140.435C149.958 142.645 150.24 144.27 150.803 145.31C151.367 146.307 152.32 147.173 153.663 147.91C153.1 147.953 152.298 147.975 151.258 147.975C147.618 147.975 145.018 147.412 143.458 146.285C141.942 145.158 141.183 143.187 141.183 140.37C141.183 138.767 141.617 135.647 142.483 131.01C143.35 126.33 143.783 122.842 143.783 120.545C143.783 117.685 142.917 116.255 141.183 116.255C139.883 116.255 138.475 117.208 136.958 119.115C135.485 120.978 134.185 123.817 133.058 127.63C131.932 131.4 131.368 135.56 131.368 140.11ZM211.228 113.98C211.228 115.497 210.578 117.555 209.278 120.155C207.978 122.712 206.396 125.55 204.533 128.67C202.67 131.79 200.806 135.127 198.943 138.68C197.08 142.19 195.498 146.155 194.198 150.575C192.898 155.038 192.248 159.393 192.248 163.64C192.248 165.59 192.4 167.453 192.703 169.23C189.193 168.58 186.81 167.605 185.553 166.305C184.296 165.048 183.668 163.553 183.668 161.82C183.668 159.437 185.401 154.735 188.868 147.715C188.218 145.028 187.416 140.825 186.463 135.105C185.51 129.342 184.535 124.337 183.538 120.09C182.585 115.843 181.48 112.68 180.223 110.6C182.606 109.473 184.513 108.91 185.943 108.91C187.373 108.91 188.456 109.235 189.193 109.885C189.93 110.535 190.536 111.835 191.013 113.785C191.533 115.692 191.901 117.273 192.118 118.53C192.725 122.69 193.028 125.008 193.028 125.485C193.028 125.962 193.201 127.912 193.548 131.335C193.895 134.715 194.155 136.947 194.328 138.03C202.041 123.08 205.898 113.092 205.898 108.065C209.451 109.885 211.228 111.857 211.228 113.98ZM235.319 114.435C232.502 114.435 229.989 116.342 227.779 120.155C225.569 123.925 224.464 127.695 224.464 131.465C224.464 139.352 226.5 143.295 230.574 143.295C233.477 143.295 235.839 141.41 237.659 137.64C239.479 133.827 240.389 129.558 240.389 124.835C240.389 117.902 238.699 114.435 235.319 114.435ZM239.349 109.69C241.949 109.69 244.159 110.968 245.979 113.525C247.799 116.082 248.709 119.505 248.709 123.795C248.709 128.605 247.734 133.025 245.784 137.055C243.617 141.605 240.54 144.747 236.554 146.48C234.3 147.477 231.83 147.975 229.144 147.975C225.374 147.975 222.08 146.523 219.264 143.62C216.49 140.673 215.104 136.47 215.104 131.01C215.104 125.507 216.447 120.675 219.134 116.515C221.82 112.312 225.374 109.668 229.794 108.585C230.27 108.585 230.704 108.737 231.094 109.04C231.527 109.3 231.744 109.582 231.744 109.885C227.367 112.918 224.745 117.143 223.879 122.56C224.789 120.133 225.894 118.032 227.194 116.255C228.537 114.478 229.924 113.135 231.354 112.225C234.084 110.535 236.749 109.69 239.349 109.69ZM280.246 109.365C282.499 109.365 284.211 109.777 285.381 110.6C286.551 111.423 287.136 112.94 287.136 115.15C287.136 115.843 286.724 118.898 285.901 124.315C285.077 129.688 284.666 134.303 284.666 138.16C284.666 142.017 285.077 145.418 285.901 148.365C282.651 147.325 280.397 145.852 279.141 143.945C277.884 142.038 277.256 139.677 277.256 136.86C277.256 135.777 277.494 133.328 277.971 129.515C276.627 134.455 274.569 138.615 271.796 141.995C269.066 145.332 266.487 147 264.061 147C259.077 147 256.586 143.403 256.586 136.21C256.586 133.827 256.932 130.512 257.626 126.265C258.362 121.975 258.731 118.725 258.731 116.515C258.731 114.305 258.427 112.073 257.821 109.82C261.417 109.82 264.017 110.297 265.621 111.25C267.267 112.16 268.091 114.002 268.091 116.775C268.091 118.248 267.636 121.173 266.726 125.55C265.816 129.927 265.361 133.22 265.361 135.43C265.361 138.637 266.227 140.24 267.961 140.24C268.827 140.24 269.824 139.655 270.951 138.485C272.077 137.272 273.161 135.69 274.201 133.74C275.241 131.747 276.107 129.277 276.801 126.33C277.537 123.34 277.906 120.328 277.906 117.295C277.906 114.218 277.776 111.618 277.516 109.495C278.816 109.408 279.726 109.365 280.246 109.365ZM305.495 125.875C307.055 120.242 308.918 116.103 311.085 113.46C313.295 110.773 315.331 109.43 317.195 109.43C319.101 109.43 320.531 110.145 321.485 111.575C322.438 112.962 322.915 114.782 322.915 117.035C322.915 119.245 322.243 121.282 320.9 123.145C319.6 125.008 317.801 125.94 315.505 125.94C314.898 125.94 314.183 125.767 313.36 125.42C314.703 123.73 315.375 121.693 315.375 119.31C315.375 117.923 314.811 117.23 313.685 117.23C312.861 117.23 311.973 117.815 311.02 118.985C310.066 120.112 309.156 121.693 308.29 123.73C307.423 125.723 306.686 128.302 306.08 131.465C305.516 134.585 305.235 137.922 305.235 141.475C305.235 141.908 305.343 143.75 305.56 147C304.173 147.087 303.285 147.13 302.895 147.13C300.425 147.13 298.648 146.697 297.565 145.83C296.481 144.963 295.94 143.533 295.94 141.54C295.94 140.673 296.395 137.337 297.305 131.53C298.215 125.723 298.67 121.108 298.67 117.685C298.67 114.218 298.301 111.033 297.565 108.13C300.728 109.127 302.938 110.557 304.195 112.42C305.451 114.24 306.08 116.385 306.08 118.855C306.08 121.282 305.885 123.622 305.495 125.875ZM369.648 110.99C369.648 113.07 369.279 114.522 368.543 115.345C367.806 116.125 366.506 116.515 364.643 116.515C362.823 116.515 361.414 116.493 360.418 116.45C358.728 128.757 357.883 137.575 357.883 142.905C357.883 145.462 357.926 147.303 358.013 148.43C358.143 149.6 358.446 151.572 358.923 154.345C355.803 153.348 353.506 151.723 352.033 149.47C350.559 147.26 349.823 144.638 349.823 141.605C349.823 137.055 350.473 130.338 351.773 121.455C352.076 119.202 352.271 117.707 352.358 116.97C350.061 117.36 347.721 118.097 345.338 119.18C345.251 118.227 345.208 117.512 345.208 117.035C345.208 114.695 345.923 113.113 347.353 112.29C348.783 111.467 350.841 111.033 353.528 110.99C354.394 106.743 355.543 103.082 356.973 100.005C358.446 96.9283 360.049 94.61 361.783 93.05C365.076 90.0167 368.521 88.5 372.118 88.5C374.544 88.5 376.581 89.2367 378.228 90.71C379.918 92.14 380.763 93.9167 380.763 96.04C380.763 98.12 380.048 99.94 378.618 101.5C377.188 103.06 375.303 103.84 372.963 103.84C372.053 103.84 371.164 103.688 370.298 103.385C370.991 102.865 371.663 101.955 372.313 100.655C373.006 99.355 373.353 98.1417 373.353 97.015C373.353 95.845 373.093 94.935 372.573 94.285C372.096 93.635 371.446 93.31 370.623 93.31C368.846 93.31 367.026 94.805 365.163 97.795C363.343 100.742 361.978 105.205 361.068 111.185C364.924 111.185 367.741 110.47 369.518 109.04C369.604 109.907 369.648 110.557 369.648 110.99ZM381.556 134.715C381.556 136.752 381.924 138.42 382.661 139.72C383.441 140.977 384.524 141.605 385.911 141.605C387.947 141.605 389.876 140.413 391.696 138.03C393.559 135.647 395.032 132.592 396.116 128.865C397.242 125.138 397.806 121.607 397.806 118.27C397.806 114.89 397.676 112.16 397.416 110.08C398.716 109.993 399.626 109.95 400.146 109.95C402.356 109.95 404.024 110.362 405.151 111.185C406.277 112.008 406.841 113.482 406.841 115.605C406.841 116.428 406.321 119.787 405.281 125.68C404.241 131.53 403.721 136.232 403.721 139.785C403.721 143.295 404.392 146.415 405.736 149.145C402.486 148.582 400.102 147.39 398.586 145.57C397.069 143.707 396.311 141.042 396.311 137.575C396.311 136.968 396.397 135.798 396.571 134.065C395.401 138.182 393.321 141.497 390.331 144.01C387.341 146.523 384.394 147.78 381.491 147.78C378.631 147.78 376.312 146.718 374.536 144.595C372.802 142.428 371.936 139.373 371.936 135.43C371.936 131.487 372.629 127.673 374.016 123.99C375.446 120.263 377.569 117.122 380.386 114.565C383.202 111.965 386.344 110.665 389.811 110.665C391.804 110.665 393.841 111.142 395.921 112.095C391.544 113.655 388.056 116.732 385.456 121.325C382.856 125.875 381.556 130.338 381.556 134.715ZM428.016 147C426.629 147.607 425.177 147.91 423.661 147.91C422.144 147.91 421.299 147.585 421.126 146.935C420.432 144.162 419.631 140.023 418.721 134.52C417.811 128.973 416.879 124.142 415.926 120.025C415.016 115.865 413.911 112.723 412.611 110.6C414.994 109.473 416.901 108.91 418.331 108.91C419.761 108.91 420.844 109.235 421.581 109.885C422.317 110.535 422.924 111.835 423.401 113.785C423.921 115.692 424.289 117.273 424.506 118.53C425.112 122.69 425.416 125.008 425.416 125.485C425.416 125.962 425.589 127.912 425.936 131.335C426.282 134.715 426.542 136.947 426.716 138.03C434.429 123.08 438.286 113.092 438.286 108.065C441.839 109.885 443.616 111.857 443.616 113.98C443.616 115.713 442.706 118.292 440.886 121.715C439.109 125.095 436.856 129.212 434.126 134.065C431.439 138.875 429.402 143.187 428.016 147ZM467.706 114.435C464.89 114.435 462.376 116.342 460.166 120.155C457.956 123.925 456.851 127.695 456.851 131.465C456.851 139.352 458.888 143.295 462.961 143.295C465.865 143.295 468.226 141.41 470.046 137.64C471.866 133.827 472.776 129.558 472.776 124.835C472.776 117.902 471.086 114.435 467.706 114.435ZM471.736 109.69C474.336 109.69 476.546 110.968 478.366 113.525C480.186 116.082 481.096 119.505 481.096 123.795C481.096 128.605 480.121 133.025 478.171 137.055C476.005 141.605 472.928 144.747 468.941 146.48C466.688 147.477 464.218 147.975 461.531 147.975C457.761 147.975 454.468 146.523 451.651 143.62C448.878 140.673 447.491 136.47 447.491 131.01C447.491 125.507 448.835 120.675 451.521 116.515C454.208 112.312 457.761 109.668 462.181 108.585C462.658 108.585 463.091 108.737 463.481 109.04C463.915 109.3 464.131 109.582 464.131 109.885C459.755 112.918 457.133 117.143 456.266 122.56C457.176 120.133 458.281 118.032 459.581 116.255C460.925 114.478 462.311 113.135 463.741 112.225C466.471 110.535 469.136 109.69 471.736 109.69ZM512.633 109.365C514.887 109.365 516.598 109.777 517.768 110.6C518.938 111.423 519.523 112.94 519.523 115.15C519.523 115.843 519.112 118.898 518.288 124.315C517.465 129.688 517.053 134.303 517.053 138.16C517.053 142.017 517.465 145.418 518.288 148.365C515.038 147.325 512.785 145.852 511.528 143.945C510.272 142.038 509.643 139.677 509.643 136.86C509.643 135.777 509.882 133.328 510.358 129.515C509.015 134.455 506.957 138.615 504.183 141.995C501.453 145.332 498.875 147 496.448 147C491.465 147 488.973 143.403 488.973 136.21C488.973 133.827 489.32 130.512 490.013 126.265C490.75 121.975 491.118 118.725 491.118 116.515C491.118 114.305 490.815 112.073 490.208 109.82C493.805 109.82 496.405 110.297 498.008 111.25C499.655 112.16 500.478 114.002 500.478 116.775C500.478 118.248 500.023 121.173 499.113 125.55C498.203 129.927 497.748 133.22 497.748 135.43C497.748 138.637 498.615 140.24 500.348 140.24C501.215 140.24 502.212 139.655 503.338 138.485C504.465 137.272 505.548 135.69 506.588 133.74C507.628 131.747 508.495 129.277 509.188 126.33C509.925 123.34 510.293 120.328 510.293 117.295C510.293 114.218 510.163 111.618 509.903 109.495C511.203 109.408 512.113 109.365 512.633 109.365ZM537.882 125.875C539.442 120.242 541.306 116.103 543.472 113.46C545.682 110.773 547.719 109.43 549.582 109.43C551.489 109.43 552.919 110.145 553.872 111.575C554.826 112.962 555.302 114.782 555.302 117.035C555.302 119.245 554.631 121.282 553.287 123.145C551.987 125.008 550.189 125.94 547.892 125.94C547.286 125.94 546.571 125.767 545.747 125.42C547.091 123.73 547.762 121.693 547.762 119.31C547.762 117.923 547.199 117.23 546.072 117.23C545.249 117.23 544.361 117.815 543.407 118.985C542.454 120.112 541.544 121.693 540.677 123.73C539.811 125.723 539.074 128.302 538.467 131.465C537.904 134.585 537.622 137.922 537.622 141.475C537.622 141.908 537.731 143.75 537.947 147C536.561 147.087 535.672 147.13 535.282 147.13C532.812 147.13 531.036 146.697 529.952 145.83C528.869 144.963 528.327 143.533 528.327 141.54C528.327 140.673 528.782 137.337 529.692 131.53C530.602 125.723 531.057 121.108 531.057 117.685C531.057 114.218 530.689 111.033 529.952 108.13C533.116 109.127 535.326 110.557 536.582 112.42C537.839 114.24 538.467 116.385 538.467 118.855C538.467 121.282 538.272 123.622 537.882 125.875ZM559.52 136.34C559.52 134.52 559.867 131.227 560.56 126.46C561.254 121.693 561.6 117.988 561.6 115.345C561.6 112.702 561.47 110.665 561.21 109.235C562.164 109.148 563.052 109.105 563.875 109.105C566.389 109.105 568.122 109.538 569.075 110.405C570.072 111.228 570.57 112.658 570.57 114.695C570.57 115.345 570.029 118.768 568.945 124.965C567.905 131.118 567.364 136.21 567.32 140.24C567.32 144.227 567.58 146.805 568.1 147.975C564.72 147.108 562.445 145.808 561.275 144.075C560.105 142.298 559.52 139.72 559.52 136.34ZM568.36 103.645C563.897 103.645 561.665 102.085 561.665 98.965C561.665 97.8383 561.99 96.3 562.64 94.35C563.854 94.1767 564.915 94.09 565.825 94.09C570.289 94.09 572.52 95.65 572.52 98.77C572.52 99.8967 572.195 101.435 571.545 103.385C570.332 103.558 569.27 103.645 568.36 103.645ZM591.324 124.575C590.631 128.432 590.089 131.855 589.699 134.845C589.309 137.835 589.114 140.89 589.114 144.01C589.114 147.13 589.417 149.362 590.024 150.705C586.687 149.838 584.391 148.517 583.134 146.74C581.877 144.92 581.249 142.363 581.249 139.07C581.249 136.167 581.704 132.202 582.614 127.175C583.524 122.105 584.109 118.682 584.369 116.905C582.116 117.295 579.711 118.053 577.154 119.18C577.067 118.227 577.024 117.512 577.024 117.035C577.024 114.738 577.717 113.178 579.104 112.355C580.491 111.488 582.484 111.033 585.084 110.99C585.387 107.74 585.539 105.4 585.539 103.97C585.539 102.54 585.517 101.348 585.474 100.395C585.474 99.4417 585.474 98.7267 585.474 98.25C588.334 98.5533 590.414 99.42 591.714 100.85C593.014 102.237 593.664 104.23 593.664 106.83C593.664 107.87 593.556 109.322 593.339 111.185C596.979 111.098 599.644 110.383 601.334 109.04C601.421 109.907 601.464 110.557 601.464 110.99C601.464 113.07 601.096 114.522 600.359 115.345C599.622 116.125 598.387 116.515 596.654 116.515C594.921 116.515 593.599 116.493 592.689 116.45C592.472 118.01 592.017 120.718 591.324 124.575ZM618.737 131.01C616.657 131.01 614.621 130.772 612.627 130.295C612.584 130.728 612.562 131.4 612.562 132.31C612.562 135.907 613.234 138.615 614.577 140.435C615.921 142.255 617.524 143.165 619.387 143.165C621.251 143.165 623.027 142.602 624.717 141.475C626.407 140.348 627.881 138.788 629.137 136.795C630.697 137.142 631.477 137.943 631.477 139.2C627.664 145.05 622.746 147.975 616.722 147.975C613.082 147.975 609.897 146.588 607.167 143.815C604.437 140.998 603.072 137.098 603.072 132.115C603.072 128.388 603.787 124.857 605.217 121.52C606.647 118.14 608.922 115.302 612.042 113.005C615.162 110.665 618.607 109.495 622.377 109.495C626.191 109.495 628.986 110.362 630.762 112.095C632.539 113.828 633.427 116.103 633.427 118.92C633.427 122.993 631.997 126.027 629.137 128.02C626.321 130.013 622.854 131.01 618.737 131.01ZM621.467 113.525C619.257 113.525 617.394 114.89 615.877 117.62C614.361 120.35 613.364 123.665 612.887 127.565H613.862C617.632 127.565 620.406 126.59 622.182 124.64C624.002 122.69 624.912 120.35 624.912 117.62C624.912 116.493 624.609 115.54 624.002 114.76C623.439 113.937 622.594 113.525 621.467 113.525ZM7.525 229.375C7.005 228.508 6.68 227.685 6.55 226.905C6.42 226.082 6.355 224.825 6.355 223.135C6.355 221.445 7.07 214.793 8.5 203.18C9.97333 191.567 10.71 183.593 10.71 179.26C10.71 174.927 10.45 172.11 9.93 170.81C13.18 171.677 15.39 172.998 16.56 174.775C17.7733 176.508 18.38 178.978 18.38 182.185C18.38 184.092 17.7517 190.288 16.495 200.775C15.2383 211.262 14.61 219.712 14.61 226.125C14.61 227.512 14.6967 229.462 14.87 231.975C10.9267 231.802 8.47833 230.935 7.525 229.375ZM44.8888 198.435C42.0722 198.435 39.5588 200.342 37.3488 204.155C35.1388 207.925 34.0338 211.695 34.0338 215.465C34.0338 223.352 36.0705 227.295 40.1438 227.295C43.0472 227.295 45.4088 225.41 47.2288 221.64C49.0488 217.827 49.9588 213.558 49.9588 208.835C49.9588 201.902 48.2688 198.435 44.8888 198.435ZM48.9188 193.69C51.5188 193.69 53.7288 194.968 55.5488 197.525C57.3688 200.082 58.2788 203.505 58.2788 207.795C58.2788 212.605 57.3038 217.025 55.3538 221.055C53.1872 225.605 50.1105 228.747 46.1238 230.48C43.8705 231.477 41.4005 231.975 38.7138 231.975C34.9438 231.975 31.6505 230.523 28.8338 227.62C26.0605 224.673 24.6738 220.47 24.6738 215.01C24.6738 209.507 26.0172 204.675 28.7038 200.515C31.3905 196.312 34.9438 193.668 39.3638 192.585C39.8405 192.585 40.2738 192.737 40.6638 193.04C41.0972 193.3 41.3138 193.582 41.3138 193.885C36.9372 196.918 34.3155 201.143 33.4488 206.56C34.3588 204.133 35.4638 202.032 36.7638 200.255C38.1072 198.478 39.4938 197.135 40.9238 196.225C43.6538 194.535 46.3188 193.69 48.9188 193.69ZM74.086 216.31C74.086 223.547 76.2093 227.165 80.456 227.165C82.1027 227.165 83.771 226.602 85.461 225.475C87.151 224.348 88.6243 222.788 89.881 220.795C91.441 221.142 92.221 221.943 92.221 223.2C90.401 226.363 88.1693 228.617 85.526 229.96C82.8827 231.303 80.2394 231.975 77.596 231.975C74.0427 231.975 71.0093 230.675 68.496 228.075C66.026 225.432 64.791 221.618 64.791 216.635C64.791 210.265 66.546 204.827 70.056 200.32C73.566 195.77 78.311 193.495 84.291 193.495C87.6277 193.495 90.141 194.318 91.831 195.965C93.521 197.568 94.366 199.497 94.366 201.75C94.366 203.96 93.6727 205.888 92.286 207.535C90.9427 209.182 89.2094 210.005 87.086 210.005C86.046 210.005 85.006 209.788 83.966 209.355C84.616 208.618 85.2227 207.47 85.786 205.91C86.3493 204.307 86.631 202.833 86.631 201.49C86.631 198.847 85.4827 197.525 83.186 197.525C80.4994 197.525 78.311 199.497 76.621 203.44C74.931 207.383 74.086 211.673 74.086 216.31ZM109.051 218.715C109.051 220.752 109.419 222.42 110.156 223.72C110.936 224.977 112.019 225.605 113.406 225.605C115.443 225.605 117.371 224.413 119.191 222.03C121.054 219.647 122.528 216.592 123.611 212.865C124.738 209.138 125.301 205.607 125.301 202.27C125.301 198.89 125.171 196.16 124.911 194.08C126.211 193.993 127.121 193.95 127.641 193.95C129.851 193.95 131.519 194.362 132.646 195.185C133.773 196.008 134.336 197.482 134.336 199.605C134.336 200.428 133.816 203.787 132.776 209.68C131.736 215.53 131.216 220.232 131.216 223.785C131.216 227.295 131.888 230.415 133.231 233.145C129.981 232.582 127.598 231.39 126.081 229.57C124.564 227.707 123.806 225.042 123.806 221.575C123.806 220.968 123.893 219.798 124.066 218.065C122.896 222.182 120.816 225.497 117.826 228.01C114.836 230.523 111.889 231.78 108.986 231.78C106.126 231.78 103.808 230.718 102.031 228.595C100.298 226.428 99.4309 223.373 99.4309 219.43C99.4309 215.487 100.124 211.673 101.511 207.99C102.941 204.263 105.064 201.122 107.881 198.565C110.698 195.965 113.839 194.665 117.306 194.665C119.299 194.665 121.336 195.142 123.416 196.095C119.039 197.655 115.551 200.732 112.951 205.325C110.351 209.875 109.051 214.338 109.051 218.715ZM143.746 229.375C143.226 228.508 142.901 227.685 142.771 226.905C142.641 226.082 142.576 224.825 142.576 223.135C142.576 221.445 143.291 214.793 144.721 203.18C146.194 191.567 146.931 183.593 146.931 179.26C146.931 174.927 146.671 172.11 146.151 170.81C149.401 171.677 151.611 172.998 152.781 174.775C153.994 176.508 154.601 178.978 154.601 182.185C154.601 184.092 153.972 190.288 152.716 200.775C151.459 211.262 150.831 219.712 150.831 226.125C150.831 227.512 150.917 229.462 151.091 231.975C147.147 231.802 144.699 230.935 143.746 229.375ZM193.205 209.875C194.765 204.242 196.628 200.103 198.795 197.46C201.005 194.773 203.041 193.43 204.905 193.43C206.811 193.43 208.241 194.145 209.195 195.575C210.148 196.962 210.625 198.782 210.625 201.035C210.625 203.245 209.953 205.282 208.61 207.145C207.31 209.008 205.511 209.94 203.215 209.94C202.608 209.94 201.893 209.767 201.07 209.42C202.413 207.73 203.085 205.693 203.085 203.31C203.085 201.923 202.521 201.23 201.395 201.23C200.571 201.23 199.683 201.815 198.73 202.985C197.776 204.112 196.866 205.693 196 207.73C195.133 209.723 194.396 212.302 193.79 215.465C193.226 218.585 192.945 221.922 192.945 225.475C192.945 225.908 193.053 227.75 193.27 231C191.883 231.087 190.995 231.13 190.605 231.13C188.135 231.13 186.358 230.697 185.275 229.83C184.191 228.963 183.65 227.533 183.65 225.54C183.65 224.673 184.105 221.337 185.015 215.53C185.925 209.723 186.38 205.108 186.38 201.685C186.38 198.218 186.011 195.033 185.275 192.13C188.438 193.127 190.648 194.557 191.905 196.42C193.161 198.24 193.79 200.385 193.79 202.855C193.79 205.282 193.595 207.622 193.205 209.875ZM228.103 215.01C226.023 215.01 223.986 214.772 221.993 214.295C221.949 214.728 221.928 215.4 221.928 216.31C221.928 219.907 222.599 222.615 223.943 224.435C225.286 226.255 226.889 227.165 228.753 227.165C230.616 227.165 232.393 226.602 234.083 225.475C235.773 224.348 237.246 222.788 238.503 220.795C240.063 221.142 240.843 221.943 240.843 223.2C237.029 229.05 232.111 231.975 226.088 231.975C222.448 231.975 219.263 230.588 216.533 227.815C213.803 224.998 212.438 221.098 212.438 216.115C212.438 212.388 213.153 208.857 214.583 205.52C216.013 202.14 218.288 199.302 221.408 197.005C224.528 194.665 227.973 193.495 231.743 193.495C235.556 193.495 238.351 194.362 240.128 196.095C241.904 197.828 242.793 200.103 242.793 202.92C242.793 206.993 241.363 210.027 238.503 212.02C235.686 214.013 232.219 215.01 228.103 215.01ZM230.833 197.525C228.623 197.525 226.759 198.89 225.243 201.62C223.726 204.35 222.729 207.665 222.253 211.565H223.228C226.998 211.565 229.771 210.59 231.548 208.64C233.368 206.69 234.278 204.35 234.278 201.62C234.278 200.493 233.974 199.54 233.368 198.76C232.804 197.937 231.959 197.525 230.833 197.525ZM264.02 197.33C262.806 197.33 261.723 197.742 260.77 198.565C259.816 199.345 259.34 200.472 259.34 201.945C259.34 203.418 259.838 204.805 260.835 206.105C261.875 207.405 263.131 208.553 264.605 209.55C266.078 210.503 267.551 211.5 269.025 212.54C270.541 213.537 271.863 214.793 272.99 216.31C274.116 217.783 274.745 219.43 274.875 221.25C274.875 224.37 273.531 226.992 270.845 229.115C268.158 231.238 264.821 232.3 260.835 232.3C256.848 232.3 253.706 231.498 251.41 229.895C249.156 228.292 248.03 226.45 248.03 224.37C248.03 222.29 248.658 220.622 249.915 219.365C251.215 218.065 252.818 217.415 254.725 217.415C255.721 217.415 256.653 217.588 257.52 217.935C256.133 219.408 255.44 220.968 255.44 222.615C255.44 224.262 255.895 225.583 256.805 226.58C257.715 227.577 258.95 228.075 260.51 228.075C262.07 228.075 263.37 227.685 264.41 226.905C265.493 226.082 266.035 225.042 266.035 223.785C266.035 222.485 265.666 221.337 264.93 220.34C264.193 219.343 263.261 218.477 262.135 217.74C261.051 216.96 259.86 216.093 258.56 215.14C257.26 214.187 256.046 213.233 254.92 212.28C253.836 211.283 252.926 210.048 252.19 208.575C251.453 207.058 251.085 205.412 251.085 203.635C251.085 200.558 252.341 198.045 254.855 196.095C257.411 194.102 260.575 193.105 264.345 193.105C268.158 193.105 270.931 193.842 272.665 195.315C274.441 196.788 275.33 198.522 275.33 200.515C275.33 202.465 274.701 204.133 273.445 205.52C272.231 206.907 270.65 207.6 268.7 207.6C267.746 207.6 266.663 207.405 265.45 207.015C266.403 206.192 267.14 205.26 267.66 204.22C268.18 203.137 268.44 202.075 268.44 201.035C268.44 199.995 268.006 199.128 267.14 198.435C266.273 197.698 265.233 197.33 264.02 197.33ZM294.762 208.575C294.068 212.432 293.527 215.855 293.137 218.845C292.747 221.835 292.552 224.89 292.552 228.01C292.552 231.13 292.855 233.362 293.462 234.705C290.125 233.838 287.828 232.517 286.572 230.74C285.315 228.92 284.687 226.363 284.687 223.07C284.687 220.167 285.142 216.202 286.052 211.175C286.962 206.105 287.547 202.682 287.807 200.905C285.553 201.295 283.148 202.053 280.592 203.18C280.505 202.227 280.462 201.512 280.462 201.035C280.462 198.738 281.155 197.178 282.542 196.355C283.928 195.488 285.922 195.033 288.522 194.99C288.825 191.74 288.977 189.4 288.977 187.97C288.977 186.54 288.955 185.348 288.912 184.395C288.912 183.442 288.912 182.727 288.912 182.25C291.772 182.553 293.852 183.42 295.152 184.85C296.452 186.237 297.102 188.23 297.102 190.83C297.102 191.87 296.993 193.322 296.777 195.185C300.417 195.098 303.082 194.383 304.772 193.04C304.858 193.907 304.902 194.557 304.902 194.99C304.902 197.07 304.533 198.522 303.797 199.345C303.06 200.125 301.825 200.515 300.092 200.515C298.358 200.515 297.037 200.493 296.127 200.45C295.91 202.01 295.455 204.718 294.762 208.575ZM315.35 218.715C315.35 220.752 315.718 222.42 316.455 223.72C317.235 224.977 318.318 225.605 319.705 225.605C321.741 225.605 323.67 224.413 325.49 222.03C327.353 219.647 328.826 216.592 329.91 212.865C331.036 209.138 331.6 205.607 331.6 202.27C331.6 198.89 331.47 196.16 331.21 194.08C332.51 193.993 333.42 193.95 333.94 193.95C336.15 193.95 337.818 194.362 338.945 195.185C340.071 196.008 340.635 197.482 340.635 199.605C340.635 200.428 340.115 203.787 339.075 209.68C338.035 215.53 337.515 220.232 337.515 223.785C337.515 227.295 338.186 230.415 339.53 233.145C336.28 232.582 333.896 231.39 332.38 229.57C330.863 227.707 330.105 225.042 330.105 221.575C330.105 220.968 330.191 219.798 330.365 218.065C329.195 222.182 327.115 225.497 324.125 228.01C321.135 230.523 318.188 231.78 315.285 231.78C312.425 231.78 310.106 230.718 308.33 228.595C306.596 226.428 305.73 223.373 305.73 219.43C305.73 215.487 306.423 211.673 307.81 207.99C309.24 204.263 311.363 201.122 314.18 198.565C316.996 195.965 320.138 194.665 323.605 194.665C325.598 194.665 327.635 195.142 329.715 196.095C325.338 197.655 321.85 200.732 319.25 205.325C316.65 209.875 315.35 214.338 315.35 218.715ZM372.795 193.365C375.048 193.365 376.76 193.777 377.93 194.6C379.1 195.423 379.685 196.94 379.685 199.15C379.685 199.843 379.273 202.898 378.45 208.315C377.626 213.688 377.215 218.303 377.215 222.16C377.215 226.017 377.626 229.418 378.45 232.365C375.2 231.325 372.946 229.852 371.69 227.945C370.433 226.038 369.805 223.677 369.805 220.86C369.805 219.777 370.043 217.328 370.52 213.515C369.176 218.455 367.118 222.615 364.345 225.995C361.615 229.332 359.036 231 356.61 231C351.626 231 349.135 227.403 349.135 220.21C349.135 217.827 349.481 214.512 350.175 210.265C350.911 205.975 351.28 202.725 351.28 200.515C351.28 198.305 350.976 196.073 350.37 193.82C353.966 193.82 356.566 194.297 358.17 195.25C359.816 196.16 360.64 198.002 360.64 200.775C360.64 202.248 360.185 205.173 359.275 209.55C358.365 213.927 357.91 217.22 357.91 219.43C357.91 222.637 358.776 224.24 360.51 224.24C361.376 224.24 362.373 223.655 363.5 222.485C364.626 221.272 365.71 219.69 366.75 217.74C367.79 215.747 368.656 213.277 369.35 210.33C370.086 207.34 370.455 204.328 370.455 201.295C370.455 198.218 370.325 195.618 370.065 193.495C371.365 193.408 372.275 193.365 372.795 193.365ZM398.043 209.875C399.603 204.242 401.467 200.103 403.633 197.46C405.843 194.773 407.88 193.43 409.743 193.43C411.65 193.43 413.08 194.145 414.033 195.575C414.987 196.962 415.463 198.782 415.463 201.035C415.463 203.245 414.792 205.282 413.448 207.145C412.148 209.008 410.35 209.94 408.053 209.94C407.447 209.94 406.732 209.767 405.908 209.42C407.252 207.73 407.923 205.693 407.923 203.31C407.923 201.923 407.36 201.23 406.233 201.23C405.41 201.23 404.522 201.815 403.568 202.985C402.615 204.112 401.705 205.693 400.838 207.73C399.972 209.723 399.235 212.302 398.628 215.465C398.065 218.585 397.783 221.922 397.783 225.475C397.783 225.908 397.892 227.75 398.108 231C396.722 231.087 395.833 231.13 395.443 231.13C392.973 231.13 391.197 230.697 390.113 229.83C389.03 228.963 388.488 227.533 388.488 225.54C388.488 224.673 388.943 221.337 389.853 215.53C390.763 209.723 391.218 205.108 391.218 201.685C391.218 198.218 390.85 195.033 390.113 192.13C393.277 193.127 395.487 194.557 396.743 196.42C398 198.24 398.628 200.385 398.628 202.855C398.628 205.282 398.433 207.622 398.043 209.875ZM426.116 218.715C426.116 220.752 426.485 222.42 427.221 223.72C428.001 224.977 429.085 225.605 430.471 225.605C432.508 225.605 434.436 224.413 436.256 222.03C438.12 219.647 439.593 216.592 440.676 212.865C441.803 209.138 442.366 205.607 442.366 202.27C442.366 198.89 442.236 196.16 441.976 194.08C443.276 193.993 444.186 193.95 444.706 193.95C446.916 193.95 448.585 194.362 449.711 195.185C450.838 196.008 451.401 197.482 451.401 199.605C451.401 200.428 450.881 203.787 449.841 209.68C448.801 215.53 448.281 220.232 448.281 223.785C448.281 227.295 448.953 230.415 450.296 233.145C447.046 232.582 444.663 231.39 443.146 229.57C441.63 227.707 440.871 225.042 440.871 221.575C440.871 220.968 440.958 219.798 441.131 218.065C439.961 222.182 437.881 225.497 434.891 228.01C431.901 230.523 428.955 231.78 426.051 231.78C423.191 231.78 420.873 230.718 419.096 228.595C417.363 226.428 416.496 223.373 416.496 219.43C416.496 215.487 417.19 211.673 418.576 207.99C420.006 204.263 422.13 201.122 424.946 198.565C427.763 195.965 430.905 194.665 434.371 194.665C436.365 194.665 438.401 195.142 440.481 196.095C436.105 197.655 432.616 200.732 430.016 205.325C427.416 209.875 426.116 214.338 426.116 218.715ZM484.406 193.495C486.963 193.495 488.783 194.297 489.866 195.9C490.993 197.46 491.556 199.605 491.556 202.335C491.556 205.022 491.123 208.813 490.256 213.71C489.433 218.607 489.021 222.182 489.021 224.435C489.021 226.645 489.303 228.27 489.866 229.31C490.429 230.307 491.383 231.173 492.726 231.91C492.163 231.953 491.361 231.975 490.321 231.975C486.681 231.975 484.081 231.412 482.521 230.285C481.004 229.158 480.246 227.187 480.246 224.37C480.246 222.767 480.679 219.647 481.546 215.01C482.413 210.33 482.846 206.842 482.846 204.545C482.846 201.685 481.979 200.255 480.246 200.255C479.249 200.255 478.123 200.84 476.866 202.01C475.609 203.18 474.396 204.783 473.226 206.82C472.056 208.813 471.081 211.392 470.301 214.555C469.521 217.718 469.131 220.882 469.131 224.045C469.131 227.165 469.261 229.483 469.521 231C468.134 231.087 467.224 231.13 466.791 231.13C464.321 231.13 462.544 230.697 461.461 229.83C460.378 228.963 459.836 227.533 459.836 225.54C459.836 224.673 460.291 221.337 461.201 215.53C462.111 209.723 462.566 205.108 462.566 201.685C462.566 198.218 462.198 195.033 461.461 192.13C464.624 193.127 466.834 194.557 468.091 196.42C469.348 198.24 469.976 200.342 469.976 202.725C469.976 205.065 469.716 207.795 469.196 210.915C470.626 206.062 472.879 201.945 475.956 198.565C479.033 195.185 481.849 193.495 484.406 193.495ZM512.55 208.575C511.856 212.432 511.315 215.855 510.925 218.845C510.535 221.835 510.34 224.89 510.34 228.01C510.34 231.13 510.643 233.362 511.25 234.705C507.913 233.838 505.616 232.517 504.36 230.74C503.103 228.92 502.475 226.363 502.475 223.07C502.475 220.167 502.93 216.202 503.84 211.175C504.75 206.105 505.335 202.682 505.595 200.905C503.341 201.295 500.936 202.053 498.38 203.18C498.293 202.227 498.25 201.512 498.25 201.035C498.25 198.738 498.943 197.178 500.33 196.355C501.716 195.488 503.71 195.033 506.31 194.99C506.613 191.74 506.765 189.4 506.765 187.97C506.765 186.54 506.743 185.348 506.7 184.395C506.7 183.442 506.7 182.727 506.7 182.25C509.56 182.553 511.64 183.42 512.94 184.85C514.24 186.237 514.89 188.23 514.89 190.83C514.89 191.87 514.781 193.322 514.565 195.185C518.205 195.098 520.87 194.383 522.56 193.04C522.646 193.907 522.69 194.557 522.69 194.99C522.69 197.07 522.321 198.522 521.585 199.345C520.848 200.125 519.613 200.515 517.88 200.515C516.146 200.515 514.825 200.493 513.915 200.45C513.698 202.01 513.243 204.718 512.55 208.575ZM539.508 197.33C538.295 197.33 537.211 197.742 536.258 198.565C535.305 199.345 534.828 200.472 534.828 201.945C534.828 203.418 535.326 204.805 536.323 206.105C537.363 207.405 538.62 208.553 540.093 209.55C541.566 210.503 543.04 211.5 544.513 212.54C546.03 213.537 547.351 214.793 548.478 216.31C549.605 217.783 550.233 219.43 550.363 221.25C550.363 224.37 549.02 226.992 546.333 229.115C543.646 231.238 540.31 232.3 536.323 232.3C532.336 232.3 529.195 231.498 526.898 229.895C524.645 228.292 523.518 226.45 523.518 224.37C523.518 222.29 524.146 220.622 525.403 219.365C526.703 218.065 528.306 217.415 530.213 217.415C531.21 217.415 532.141 217.588 533.008 217.935C531.621 219.408 530.928 220.968 530.928 222.615C530.928 224.262 531.383 225.583 532.293 226.58C533.203 227.577 534.438 228.075 535.998 228.075C537.558 228.075 538.858 227.685 539.898 226.905C540.981 226.082 541.523 225.042 541.523 223.785C541.523 222.485 541.155 221.337 540.418 220.34C539.681 219.343 538.75 218.477 537.623 217.74C536.54 216.96 535.348 216.093 534.048 215.14C532.748 214.187 531.535 213.233 530.408 212.28C529.325 211.283 528.415 210.048 527.678 208.575C526.941 207.058 526.573 205.412 526.573 203.635C526.573 200.558 527.83 198.045 530.343 196.095C532.9 194.102 536.063 193.105 539.833 193.105C543.646 193.105 546.42 193.842 548.153 195.315C549.93 196.788 550.818 198.522 550.818 200.515C550.818 202.465 550.19 204.133 548.933 205.52C547.72 206.907 546.138 207.6 544.188 207.6C543.235 207.6 542.151 207.405 540.938 207.015C541.891 206.192 542.628 205.26 543.148 204.22C543.668 203.137 543.928 202.075 543.928 201.035C543.928 199.995 543.495 199.128 542.628 198.435C541.761 197.698 540.721 197.33 539.508 197.33Z" fill="#396C03"/>
<path d="M560.435 231.715C557.228 231.715 555.625 230.372 555.625 227.685C555.625 226.818 556.015 224.977 556.795 222.16C558.311 221.727 559.85 221.51 561.41 221.51C564.616 221.51 566.22 222.853 566.22 225.54C566.22 226.407 565.83 228.248 565.05 231.065C563.533 231.498 561.995 231.715 560.435 231.715Z" fill="#FF8B00"/>
</g>
<defs>
<filter id="filter0_d_13_108" x="0.274902" y="0.794922" width="637.152" height="241.91" filterUnits="userSpaceOnUse" color-interpolation-filters="sRGB">
<feFlood flood-opacity="0" result="BackgroundImageFix"/>
<feColorMatrix in="SourceAlpha" type="matrix" values="0 0 0 0 0 0 0 0 0 0 0 0 0 0 0 0 0 0 127 0" result="hardAlpha"/>
<feOffset dy="4"/>
<feGaussianBlur stdDeviation="2"/>
<feComposite in2="hardAlpha" operator="out"/>
<feColorMatrix type="matrix" values="0 0 0 0 0 0 0 0 0 0 0 0 0 0 0 0 0 0 0.25 0"/>
<feBlend mode="normal" in2="BackgroundImageFix" result="effect1_dropShadow_13_108"/>
<feBlend mode="normal" in="SourceGraphic" in2="effect1_dropShadow_13_108" result="shape"/>
</filter>
</defs>
</svg>
