<svg width="48" height="41" viewBox="0 0 48 41" fill="none" xmlns="http://www.w3.org/2000/svg">
<path fill-rule="evenodd" clip-rule="evenodd" d="M13.2547 3.80407C15.1149 3.67124 16.8795 3.03449 18.2974 1.98451C19.8988 0.79965 21.9356 0.146153 24.0428 0.14113C26.15 0.136106 28.1899 0.779884 29.797 1.9571C31.2198 3.00031 32.9875 3.62863 34.8482 3.75259C36.9496 3.89273 38.924 4.6753 40.4174 5.96003C41.9109 7.24475 42.8257 8.9476 42.998 10.7633C43.1493 12.3705 43.8847 13.8963 45.0995 15.1209C46.4691 16.5043 47.2237 18.2645 47.228 20.0859C47.2324 21.9074 46.4862 23.6711 45.1232 25.061C43.9153 26.2917 43.1872 27.8201 43.0425 29.4286C42.8789 31.2451 41.9722 32.9523 40.4849 34.2441C38.9975 35.5359 37.0269 36.3279 34.9262 36.4781C33.0661 36.6109 31.3014 37.2477 29.8836 38.2976C28.2822 39.4825 26.2454 40.136 24.1382 40.141C22.031 40.146 19.9911 39.5023 18.384 38.325C16.9612 37.2818 15.1935 36.6535 13.3328 36.5296C11.2314 36.3894 9.25701 35.6068 7.76355 34.3221C6.2701 33.0374 5.35525 31.3345 5.18301 29.5188C5.03063 27.911 4.29523 26.3861 3.08152 25.1613C1.71189 23.7778 0.957295 22.0177 0.952953 20.1962C0.94861 18.3748 1.6948 16.611 3.05782 15.2211C4.26568 13.9905 4.9938 12.4621 5.13851 10.8536C5.30209 9.03706 6.20882 7.32986 7.69613 6.03803C9.18343 4.7462 11.1541 3.95422 13.2547 3.80407ZM34.8043 16.883C35.33 16.4102 35.6201 15.778 35.6119 15.1225C35.6038 14.467 35.2981 13.8407 34.7607 13.3785C34.2234 12.9162 33.4974 12.655 32.739 12.6511C31.9807 12.6472 31.2507 12.901 30.7063 13.3577L21.2017 21.613L17.4544 18.3894C16.9078 17.9353 16.1766 17.685 15.4183 17.6925C14.66 17.7 13.9352 17.9647 13.4 18.4295C12.8649 18.8943 12.5622 19.522 12.5572 20.1776C12.5522 20.8331 12.8452 21.4639 13.3732 21.9342L19.1696 26.9204C19.7131 27.3878 20.4492 27.6494 21.2161 27.6475C21.983 27.6457 22.7179 27.3807 23.2592 26.9107L34.8043 16.883Z" fill="#FF8B00"/>
</svg>
